<?xml version="1.0" encoding="UTF-8"?>
<svg xmlns="http://www.w3.org/2000/svg" xmlns:xlink="http://www.w3.org/1999/xlink" width="16px" height="16px" viewBox="0 0 16 16" version="1.1">
<defs>
<clipPath id="clip1">
  <path d="M 2.40625 8.773438 L 7 8.773438 L 7 9.949219 L 2.40625 9.949219 Z M 2.40625 8.773438 "/>
</clipPath>
<clipPath id="clip2">
  <path d="M 6 8.773438 L 13.578125 8.773438 L 13.578125 9.949219 L 6 9.949219 Z M 6 8.773438 "/>
</clipPath>
<clipPath id="clip3">
  <path d="M 6.722656 6.050781 L 9.261719 6.050781 L 9.261719 8.492188 L 6.722656 8.492188 Z M 6.722656 6.050781 "/>
</clipPath>
</defs>
<g id="surface1">
<rect x="0" y="0" width="16" height="16" style="fill:rgb(31.372549%,62.745098%,37.647059%);fill-opacity:1;stroke:none;"/>
<g clip-path="url(#clip1)" clip-rule="nonzero">
<path style=" stroke:none;fill-rule:nonzero;fill:rgb(100%,100%,100%);fill-opacity:1;" d="M 2.71875 9.238281 L 2.691406 9.34375 L 2.90625 9.34375 L 2.878906 9.238281 C 2.863281 9.195312 2.851562 9.148438 2.835938 9.101562 C 2.824219 9.050781 2.8125 9.003906 2.800781 8.957031 L 2.796875 8.957031 C 2.785156 9.007812 2.769531 9.054688 2.757812 9.101562 C 2.746094 9.148438 2.734375 9.195312 2.71875 9.238281 Z M 2.589844 9.6875 L 2.4375 9.6875 L 2.710938 8.84375 L 2.890625 8.84375 L 3.164062 9.6875 L 3.007812 9.6875 L 2.941406 9.460938 L 2.65625 9.460938 Z M 3.566406 9.703125 C 3.535156 9.703125 3.503906 9.699219 3.476562 9.683594 C 3.445312 9.667969 3.417969 9.648438 3.390625 9.621094 L 3.386719 9.621094 L 3.375 9.6875 L 3.257812 9.6875 L 3.257812 8.773438 L 3.40625 8.773438 L 3.40625 9.011719 L 3.402344 9.117188 C 3.429688 9.09375 3.457031 9.074219 3.488281 9.058594 C 3.519531 9.046875 3.550781 9.039062 3.585938 9.039062 C 3.625 9.039062 3.660156 9.046875 3.691406 9.058594 C 3.722656 9.074219 3.75 9.097656 3.769531 9.125 C 3.792969 9.152344 3.808594 9.1875 3.820312 9.226562 C 3.832031 9.265625 3.835938 9.3125 3.835938 9.359375 C 3.835938 9.414062 3.828125 9.464844 3.8125 9.507812 C 3.800781 9.546875 3.777344 9.585938 3.753906 9.613281 C 3.730469 9.644531 3.699219 9.664062 3.667969 9.679688 C 3.632812 9.695312 3.601562 9.703125 3.566406 9.703125 Z M 3.535156 9.582031 C 3.574219 9.582031 3.613281 9.5625 3.640625 9.527344 C 3.667969 9.488281 3.683594 9.433594 3.683594 9.363281 C 3.683594 9.300781 3.671875 9.25 3.648438 9.214844 C 3.628906 9.179688 3.59375 9.160156 3.546875 9.160156 C 3.5 9.160156 3.453125 9.183594 3.40625 9.230469 L 3.40625 9.527344 C 3.429688 9.546875 3.449219 9.5625 3.472656 9.570312 C 3.492188 9.578125 3.515625 9.582031 3.535156 9.582031 Z M 4.140625 9.703125 C 4.082031 9.703125 4.039062 9.6875 4.003906 9.652344 C 3.96875 9.621094 3.953125 9.574219 3.953125 9.519531 C 3.953125 9.484375 3.960938 9.453125 3.972656 9.429688 C 3.988281 9.402344 4.011719 9.378906 4.039062 9.359375 C 4.070312 9.339844 4.109375 9.324219 4.15625 9.3125 C 4.203125 9.300781 4.261719 9.289062 4.324219 9.28125 C 4.324219 9.265625 4.324219 9.25 4.320312 9.234375 C 4.316406 9.21875 4.308594 9.207031 4.300781 9.195312 C 4.289062 9.183594 4.277344 9.175781 4.265625 9.167969 C 4.25 9.160156 4.230469 9.160156 4.210938 9.160156 C 4.179688 9.160156 4.148438 9.164062 4.117188 9.175781 C 4.089844 9.1875 4.058594 9.203125 4.03125 9.21875 L 3.976562 9.121094 C 4.011719 9.097656 4.050781 9.078125 4.097656 9.0625 C 4.140625 9.046875 4.1875 9.039062 4.238281 9.039062 C 4.316406 9.039062 4.375 9.0625 4.417969 9.109375 C 4.457031 9.15625 4.476562 9.222656 4.476562 9.3125 L 4.476562 9.6875 L 4.351562 9.6875 L 4.339844 9.621094 L 4.335938 9.621094 C 4.308594 9.644531 4.277344 9.664062 4.246094 9.679688 C 4.210938 9.695312 4.175781 9.703125 4.140625 9.703125 Z M 4.1875 9.589844 C 4.214844 9.589844 4.238281 9.582031 4.257812 9.570312 C 4.28125 9.558594 4.300781 9.539062 4.324219 9.519531 L 4.324219 9.375 C 4.28125 9.382812 4.246094 9.386719 4.21875 9.398438 C 4.1875 9.40625 4.164062 9.414062 4.144531 9.425781 C 4.128906 9.4375 4.113281 9.449219 4.105469 9.460938 C 4.097656 9.476562 4.097656 9.492188 4.097656 9.507812 C 4.097656 9.535156 4.105469 9.554688 4.121094 9.570312 C 4.140625 9.582031 4.160156 9.589844 4.1875 9.589844 Z M 4.832031 9.703125 C 4.785156 9.703125 4.742188 9.695312 4.699219 9.679688 C 4.65625 9.664062 4.621094 9.640625 4.589844 9.617188 L 4.660156 9.519531 C 4.6875 9.542969 4.71875 9.5625 4.746094 9.574219 C 4.773438 9.585938 4.804688 9.59375 4.835938 9.59375 C 4.871094 9.59375 4.894531 9.585938 4.914062 9.570312 C 4.929688 9.554688 4.9375 9.539062 4.9375 9.515625 C 4.9375 9.503906 4.933594 9.492188 4.925781 9.480469 C 4.917969 9.472656 4.90625 9.460938 4.894531 9.453125 C 4.882812 9.445312 4.867188 9.441406 4.851562 9.433594 C 4.835938 9.425781 4.816406 9.421875 4.800781 9.414062 C 4.78125 9.40625 4.757812 9.398438 4.738281 9.386719 C 4.714844 9.375 4.695312 9.363281 4.679688 9.347656 C 4.664062 9.335938 4.648438 9.316406 4.640625 9.296875 C 4.628906 9.277344 4.621094 9.253906 4.621094 9.226562 C 4.621094 9.171875 4.644531 9.125 4.683594 9.089844 C 4.726562 9.054688 4.78125 9.039062 4.855469 9.039062 C 4.898438 9.039062 4.9375 9.046875 4.972656 9.0625 C 5.007812 9.078125 5.039062 9.09375 5.066406 9.113281 L 4.996094 9.203125 C 4.972656 9.1875 4.953125 9.175781 4.929688 9.164062 C 4.90625 9.15625 4.882812 9.152344 4.855469 9.152344 C 4.824219 9.152344 4.800781 9.15625 4.785156 9.171875 C 4.769531 9.183594 4.765625 9.199219 4.765625 9.21875 C 4.765625 9.234375 4.765625 9.246094 4.773438 9.253906 C 4.78125 9.261719 4.792969 9.269531 4.804688 9.277344 C 4.816406 9.285156 4.828125 9.289062 4.847656 9.296875 C 4.863281 9.304688 4.878906 9.308594 4.894531 9.316406 C 4.917969 9.324219 4.9375 9.332031 4.960938 9.339844 C 4.980469 9.351562 5 9.363281 5.019531 9.378906 C 5.039062 9.394531 5.050781 9.410156 5.0625 9.433594 C 5.074219 9.453125 5.078125 9.480469 5.078125 9.507812 C 5.078125 9.535156 5.074219 9.5625 5.0625 9.585938 C 5.050781 9.609375 5.035156 9.628906 5.015625 9.648438 C 4.996094 9.664062 4.96875 9.679688 4.9375 9.6875 C 4.90625 9.699219 4.871094 9.703125 4.832031 9.703125 Z M 5.367188 9.703125 C 5.308594 9.703125 5.265625 9.6875 5.230469 9.652344 C 5.195312 9.621094 5.179688 9.574219 5.179688 9.519531 C 5.179688 9.484375 5.183594 9.453125 5.199219 9.429688 C 5.214844 9.402344 5.234375 9.378906 5.265625 9.359375 C 5.296875 9.339844 5.335938 9.324219 5.382812 9.3125 C 5.429688 9.300781 5.488281 9.289062 5.550781 9.28125 C 5.550781 9.265625 5.550781 9.25 5.546875 9.234375 C 5.542969 9.21875 5.535156 9.207031 5.527344 9.195312 C 5.515625 9.183594 5.503906 9.175781 5.488281 9.167969 C 5.476562 9.160156 5.457031 9.160156 5.4375 9.160156 C 5.40625 9.160156 5.375 9.164062 5.34375 9.175781 C 5.316406 9.1875 5.285156 9.203125 5.257812 9.21875 L 5.203125 9.121094 C 5.238281 9.097656 5.277344 9.078125 5.320312 9.0625 C 5.367188 9.046875 5.414062 9.039062 5.464844 9.039062 C 5.542969 9.039062 5.601562 9.0625 5.640625 9.109375 C 5.683594 9.15625 5.703125 9.222656 5.703125 9.3125 L 5.703125 9.6875 L 5.578125 9.6875 L 5.566406 9.621094 L 5.5625 9.621094 C 5.535156 9.644531 5.503906 9.664062 5.472656 9.679688 C 5.4375 9.695312 5.402344 9.703125 5.367188 9.703125 Z M 5.414062 9.589844 C 5.441406 9.589844 5.464844 9.582031 5.484375 9.570312 C 5.503906 9.558594 5.527344 9.539062 5.550781 9.519531 L 5.550781 9.375 C 5.507812 9.382812 5.472656 9.386719 5.445312 9.398438 C 5.414062 9.40625 5.390625 9.414062 5.371094 9.425781 C 5.355469 9.4375 5.339844 9.449219 5.332031 9.460938 C 5.324219 9.476562 5.320312 9.492188 5.320312 9.507812 C 5.320312 9.535156 5.332031 9.554688 5.347656 9.570312 C 5.363281 9.582031 5.386719 9.589844 5.414062 9.589844 Z M 6.027344 9.6875 L 5.878906 9.6875 L 5.878906 9.054688 L 6.003906 9.054688 L 6.011719 9.140625 L 6.019531 9.140625 C 6.046875 9.109375 6.078125 9.085938 6.109375 9.066406 C 6.144531 9.046875 6.183594 9.039062 6.226562 9.039062 C 6.296875 9.039062 6.34375 9.058594 6.375 9.101562 C 6.40625 9.148438 6.421875 9.210938 6.421875 9.289062 L 6.421875 9.6875 L 6.273438 9.6875 L 6.273438 9.308594 C 6.273438 9.257812 6.265625 9.21875 6.25 9.199219 C 6.234375 9.175781 6.210938 9.167969 6.175781 9.167969 C 6.144531 9.167969 6.121094 9.171875 6.101562 9.1875 C 6.078125 9.199219 6.054688 9.21875 6.027344 9.246094 Z M 6.027344 9.6875 "/>
</g>
<g clip-path="url(#clip2)" clip-rule="nonzero">
<path style=" stroke:none;fill-rule:nonzero;fill:rgb(27.058824%,27.058824%,27.058824%);fill-opacity:1;" d="M 6.925781 9.6875 L 6.789062 9.6875 L 6.789062 8.84375 L 6.957031 8.84375 L 7.109375 9.257812 C 7.117188 9.285156 7.128906 9.3125 7.136719 9.339844 C 7.144531 9.367188 7.152344 9.394531 7.164062 9.421875 L 7.167969 9.421875 C 7.179688 9.394531 7.1875 9.367188 7.195312 9.339844 C 7.203125 9.3125 7.210938 9.285156 7.222656 9.257812 L 7.367188 8.84375 L 7.539062 8.84375 L 7.539062 9.6875 L 7.398438 9.6875 L 7.398438 9.300781 C 7.398438 9.28125 7.402344 9.261719 7.402344 9.238281 C 7.402344 9.214844 7.40625 9.191406 7.40625 9.167969 C 7.410156 9.144531 7.410156 9.121094 7.414062 9.097656 C 7.414062 9.074219 7.417969 9.050781 7.417969 9.03125 L 7.414062 9.03125 L 7.347656 9.230469 L 7.207031 9.609375 L 7.117188 9.609375 L 6.976562 9.230469 L 6.910156 9.03125 L 6.90625 9.03125 C 6.90625 9.050781 6.910156 9.074219 6.910156 9.097656 C 6.914062 9.121094 6.914062 9.144531 6.917969 9.167969 C 6.921875 9.191406 6.921875 9.214844 6.921875 9.238281 C 6.925781 9.261719 6.925781 9.28125 6.925781 9.300781 Z M 7.929688 9.703125 C 7.863281 9.703125 7.8125 9.683594 7.78125 9.640625 C 7.75 9.597656 7.734375 9.535156 7.734375 9.453125 L 7.734375 9.054688 L 7.882812 9.054688 L 7.882812 9.433594 C 7.882812 9.484375 7.890625 9.523438 7.90625 9.542969 C 7.921875 9.566406 7.949219 9.578125 7.980469 9.578125 C 8.007812 9.578125 8.035156 9.570312 8.054688 9.554688 C 8.074219 9.542969 8.097656 9.519531 8.121094 9.488281 L 8.121094 9.054688 L 8.273438 9.054688 L 8.273438 9.6875 L 8.148438 9.6875 L 8.136719 9.597656 L 8.132812 9.597656 C 8.105469 9.628906 8.078125 9.65625 8.042969 9.675781 C 8.011719 9.695312 7.972656 9.703125 7.929688 9.703125 Z M 8.609375 9.6875 L 8.460938 9.6875 L 8.460938 9.054688 L 8.582031 9.054688 L 8.59375 9.140625 L 8.597656 9.140625 C 8.628906 9.109375 8.660156 9.085938 8.691406 9.066406 C 8.726562 9.046875 8.765625 9.039062 8.808594 9.039062 C 8.875 9.039062 8.925781 9.058594 8.957031 9.101562 C 8.988281 9.148438 9.003906 9.210938 9.003906 9.289062 L 9.003906 9.6875 L 8.855469 9.6875 L 8.855469 9.308594 C 8.855469 9.257812 8.847656 9.21875 8.832031 9.199219 C 8.816406 9.175781 8.789062 9.167969 8.753906 9.167969 C 8.726562 9.167969 8.703125 9.171875 8.683594 9.1875 C 8.660156 9.199219 8.636719 9.21875 8.609375 9.246094 Z M 9.335938 9.6875 L 9.1875 9.6875 L 9.1875 9.054688 L 9.335938 9.054688 Z M 9.261719 8.941406 C 9.234375 8.941406 9.210938 8.933594 9.195312 8.917969 C 9.175781 8.902344 9.167969 8.882812 9.167969 8.859375 C 9.167969 8.832031 9.175781 8.8125 9.195312 8.796875 C 9.210938 8.78125 9.234375 8.773438 9.261719 8.773438 C 9.289062 8.773438 9.308594 8.78125 9.328125 8.796875 C 9.34375 8.8125 9.351562 8.832031 9.351562 8.859375 C 9.351562 8.882812 9.34375 8.902344 9.328125 8.917969 C 9.308594 8.933594 9.289062 8.941406 9.261719 8.941406 Z M 9.789062 9.703125 C 9.746094 9.703125 9.707031 9.699219 9.667969 9.683594 C 9.632812 9.667969 9.597656 9.648438 9.570312 9.617188 C 9.542969 9.589844 9.523438 9.554688 9.507812 9.511719 C 9.492188 9.472656 9.484375 9.425781 9.484375 9.371094 C 9.484375 9.320312 9.492188 9.273438 9.507812 9.230469 C 9.527344 9.1875 9.550781 9.15625 9.578125 9.125 C 9.609375 9.097656 9.644531 9.074219 9.679688 9.058594 C 9.71875 9.046875 9.761719 9.039062 9.800781 9.039062 C 9.84375 9.039062 9.878906 9.042969 9.910156 9.058594 C 9.9375 9.074219 9.964844 9.089844 9.988281 9.109375 L 9.917969 9.207031 C 9.898438 9.191406 9.882812 9.179688 9.863281 9.171875 C 9.847656 9.164062 9.828125 9.160156 9.808594 9.160156 C 9.757812 9.160156 9.714844 9.179688 9.683594 9.21875 C 9.652344 9.253906 9.636719 9.308594 9.636719 9.371094 C 9.636719 9.4375 9.652344 9.488281 9.683594 9.523438 C 9.714844 9.5625 9.757812 9.582031 9.804688 9.582031 C 9.832031 9.582031 9.855469 9.578125 9.875 9.566406 C 9.898438 9.554688 9.917969 9.542969 9.9375 9.527344 L 9.996094 9.628906 C 9.96875 9.652344 9.933594 9.671875 9.898438 9.683594 C 9.863281 9.699219 9.828125 9.703125 9.789062 9.703125 Z M 10.273438 9.6875 L 10.125 9.6875 L 10.125 9.054688 L 10.273438 9.054688 Z M 10.199219 8.941406 C 10.171875 8.941406 10.148438 8.933594 10.132812 8.917969 C 10.117188 8.902344 10.105469 8.882812 10.105469 8.859375 C 10.105469 8.832031 10.117188 8.8125 10.132812 8.796875 C 10.148438 8.78125 10.171875 8.773438 10.199219 8.773438 C 10.226562 8.773438 10.246094 8.78125 10.265625 8.796875 C 10.28125 8.8125 10.289062 8.832031 10.289062 8.859375 C 10.289062 8.882812 10.28125 8.902344 10.265625 8.917969 C 10.246094 8.933594 10.226562 8.941406 10.199219 8.941406 Z M 10.613281 9.941406 L 10.460938 9.941406 L 10.460938 9.054688 L 10.585938 9.054688 L 10.597656 9.121094 L 10.601562 9.121094 C 10.628906 9.097656 10.65625 9.078125 10.691406 9.0625 C 10.722656 9.046875 10.757812 9.039062 10.792969 9.039062 C 10.832031 9.039062 10.867188 9.046875 10.898438 9.058594 C 10.929688 9.074219 10.957031 9.097656 10.976562 9.125 C 11 9.15625 11.015625 9.1875 11.027344 9.226562 C 11.039062 9.269531 11.042969 9.3125 11.042969 9.363281 C 11.042969 9.414062 11.035156 9.464844 11.019531 9.507812 C 11.003906 9.550781 10.984375 9.585938 10.960938 9.613281 C 10.933594 9.644531 10.90625 9.664062 10.875 9.679688 C 10.839844 9.695312 10.804688 9.703125 10.769531 9.703125 C 10.742188 9.703125 10.714844 9.699219 10.6875 9.6875 C 10.660156 9.675781 10.632812 9.65625 10.609375 9.636719 L 10.613281 9.742188 Z M 10.738281 9.582031 C 10.78125 9.582031 10.816406 9.5625 10.847656 9.527344 C 10.875 9.488281 10.886719 9.433594 10.886719 9.363281 C 10.886719 9.300781 10.878906 9.25 10.855469 9.214844 C 10.835938 9.179688 10.800781 9.160156 10.75 9.160156 C 10.707031 9.160156 10.660156 9.183594 10.613281 9.230469 L 10.613281 9.527344 C 10.636719 9.546875 10.65625 9.5625 10.679688 9.570312 C 10.699219 9.578125 10.71875 9.582031 10.738281 9.582031 Z M 11.347656 9.703125 C 11.289062 9.703125 11.246094 9.6875 11.210938 9.652344 C 11.175781 9.621094 11.160156 9.574219 11.160156 9.519531 C 11.160156 9.484375 11.167969 9.453125 11.179688 9.429688 C 11.195312 9.402344 11.21875 9.378906 11.25 9.359375 C 11.277344 9.339844 11.316406 9.324219 11.363281 9.3125 C 11.410156 9.300781 11.46875 9.289062 11.535156 9.28125 C 11.53125 9.265625 11.53125 9.25 11.527344 9.234375 C 11.523438 9.21875 11.515625 9.207031 11.507812 9.195312 C 11.496094 9.183594 11.484375 9.175781 11.472656 9.167969 C 11.457031 9.160156 11.4375 9.160156 11.417969 9.160156 C 11.386719 9.160156 11.355469 9.164062 11.324219 9.175781 C 11.296875 9.1875 11.265625 9.203125 11.238281 9.21875 L 11.183594 9.121094 C 11.21875 9.097656 11.257812 9.078125 11.304688 9.0625 C 11.347656 9.046875 11.394531 9.039062 11.445312 9.039062 C 11.523438 9.039062 11.585938 9.0625 11.625 9.109375 C 11.664062 9.15625 11.683594 9.222656 11.683594 9.3125 L 11.683594 9.6875 L 11.558594 9.6875 L 11.550781 9.621094 L 11.542969 9.621094 C 11.515625 9.644531 11.484375 9.664062 11.453125 9.679688 C 11.421875 9.695312 11.386719 9.703125 11.347656 9.703125 Z M 11.394531 9.589844 C 11.421875 9.589844 11.445312 9.582031 11.464844 9.570312 C 11.488281 9.558594 11.507812 9.539062 11.535156 9.519531 L 11.535156 9.375 C 11.492188 9.382812 11.453125 9.386719 11.425781 9.398438 C 11.394531 9.40625 11.371094 9.414062 11.355469 9.425781 C 11.335938 9.4375 11.324219 9.449219 11.316406 9.460938 C 11.308594 9.476562 11.304688 9.492188 11.304688 9.507812 C 11.304688 9.535156 11.3125 9.554688 11.328125 9.570312 C 11.347656 9.582031 11.367188 9.589844 11.394531 9.589844 Z M 12.007812 9.703125 C 11.953125 9.703125 11.914062 9.6875 11.894531 9.65625 C 11.871094 9.625 11.859375 9.582031 11.859375 9.527344 L 11.859375 8.773438 L 12.011719 8.773438 L 12.011719 9.535156 C 12.011719 9.550781 12.011719 9.566406 12.019531 9.570312 C 12.027344 9.578125 12.035156 9.582031 12.042969 9.582031 C 12.046875 9.582031 12.050781 9.582031 12.050781 9.582031 C 12.054688 9.582031 12.058594 9.582031 12.066406 9.582031 L 12.085938 9.691406 C 12.066406 9.699219 12.039062 9.703125 12.007812 9.703125 Z M 12.359375 9.6875 L 12.210938 9.6875 L 12.210938 9.054688 L 12.359375 9.054688 Z M 12.289062 8.941406 C 12.261719 8.941406 12.238281 8.933594 12.222656 8.917969 C 12.203125 8.902344 12.195312 8.882812 12.195312 8.859375 C 12.195312 8.832031 12.203125 8.8125 12.222656 8.796875 C 12.238281 8.78125 12.261719 8.773438 12.289062 8.773438 C 12.3125 8.773438 12.335938 8.78125 12.351562 8.796875 C 12.371094 8.8125 12.378906 8.832031 12.378906 8.859375 C 12.378906 8.882812 12.371094 8.902344 12.351562 8.917969 C 12.335938 8.933594 12.3125 8.941406 12.289062 8.941406 Z M 12.773438 9.703125 C 12.738281 9.703125 12.707031 9.699219 12.679688 9.6875 C 12.65625 9.675781 12.636719 9.660156 12.621094 9.640625 C 12.601562 9.621094 12.589844 9.597656 12.585938 9.566406 C 12.578125 9.539062 12.574219 9.507812 12.574219 9.472656 L 12.574219 9.171875 L 12.484375 9.171875 L 12.484375 9.058594 L 12.582031 9.054688 L 12.597656 8.878906 L 12.722656 8.878906 L 12.722656 9.054688 L 12.886719 9.054688 L 12.886719 9.171875 L 12.722656 9.171875 L 12.722656 9.472656 C 12.722656 9.546875 12.753906 9.585938 12.8125 9.585938 C 12.824219 9.585938 12.835938 9.585938 12.847656 9.582031 C 12.859375 9.578125 12.871094 9.574219 12.878906 9.570312 L 12.90625 9.679688 C 12.886719 9.6875 12.867188 9.691406 12.847656 9.699219 C 12.824219 9.703125 12.800781 9.703125 12.773438 9.703125 Z M 13.0625 9.949219 C 13.042969 9.949219 13.027344 9.949219 13.015625 9.949219 C 13.003906 9.945312 12.992188 9.941406 12.980469 9.9375 L 13.003906 9.820312 C 13.011719 9.824219 13.019531 9.824219 13.027344 9.828125 C 13.035156 9.828125 13.042969 9.832031 13.050781 9.832031 C 13.085938 9.832031 13.113281 9.820312 13.132812 9.800781 C 13.152344 9.78125 13.167969 9.753906 13.179688 9.722656 L 13.191406 9.679688 L 12.941406 9.054688 L 13.089844 9.054688 L 13.203125 9.367188 C 13.210938 9.394531 13.21875 9.421875 13.230469 9.453125 C 13.238281 9.484375 13.246094 9.515625 13.257812 9.542969 L 13.261719 9.542969 C 13.269531 9.515625 13.277344 9.484375 13.285156 9.453125 C 13.292969 9.421875 13.300781 9.394531 13.308594 9.367188 L 13.40625 9.054688 L 13.550781 9.054688 L 13.320312 9.71875 C 13.304688 9.753906 13.292969 9.785156 13.277344 9.816406 C 13.261719 9.84375 13.242188 9.867188 13.222656 9.886719 C 13.203125 9.910156 13.179688 9.921875 13.152344 9.933594 C 13.125 9.945312 13.097656 9.949219 13.0625 9.949219 Z M 13.0625 9.949219 "/>
</g>
<g clip-path="url(#clip3)" clip-rule="nonzero">
<path style=" stroke:none;fill-rule:nonzero;fill:rgb(100%,100%,100%);fill-opacity:1;" d="M 8.003906 7.230469 L 8.546875 7.230469 L 8.554688 6.539062 L 7.449219 6.539062 L 7.445312 7.230469 Z M 6.832031 7.261719 L 6.742188 7.261719 C 6.730469 7.261719 6.722656 7.257812 6.722656 7.246094 C 6.722656 7.242188 6.726562 7.238281 6.726562 7.234375 L 6.914062 6.988281 C 6.933594 6.964844 6.949219 6.949219 6.96875 6.9375 C 6.988281 6.921875 7.011719 6.917969 7.042969 6.917969 L 7.410156 6.917969 L 7.414062 6.539062 L 7.304688 6.539062 C 7.300781 6.539062 7.292969 6.539062 7.292969 6.53125 C 7.285156 6.523438 7.289062 6.515625 7.296875 6.507812 L 7.835938 6.125 C 7.84375 6.121094 7.847656 6.117188 7.855469 6.113281 C 7.894531 6.082031 7.941406 6.050781 7.992188 6.050781 C 8.046875 6.050781 8.09375 6.082031 8.132812 6.113281 C 8.136719 6.117188 8.144531 6.121094 8.152344 6.125 L 8.691406 6.507812 C 8.695312 6.511719 8.699219 6.515625 8.699219 6.523438 C 8.699219 6.53125 8.691406 6.539062 8.683594 6.539062 L 8.585938 6.539062 L 8.585938 6.917969 L 8.941406 6.917969 C 8.972656 6.917969 8.996094 6.921875 9.019531 6.9375 C 9.039062 6.949219 9.054688 6.964844 9.074219 6.988281 L 9.257812 7.234375 C 9.261719 7.238281 9.261719 7.242188 9.261719 7.246094 C 9.261719 7.253906 9.253906 7.261719 9.246094 7.261719 L 9.179688 7.261719 L 9.179688 8.328125 C 9.179688 8.382812 9.175781 8.421875 9.15625 8.449219 C 9.136719 8.480469 9.105469 8.496094 9.046875 8.496094 L 6.960938 8.496094 C 6.902344 8.496094 6.871094 8.480469 6.851562 8.449219 C 6.832031 8.421875 6.832031 8.382812 6.832031 8.328125 Z M 7.410156 6.953125 L 7.042969 6.953125 C 7.019531 6.953125 7 6.957031 6.984375 6.964844 C 6.96875 6.972656 6.957031 6.988281 6.941406 7.011719 L 6.773438 7.230469 L 7.410156 7.230469 Z M 7.414062 7.914062 L 7.414062 8.175781 L 7.496094 8.175781 L 7.496094 7.914062 Z M 7.390625 8.175781 L 7.390625 7.914062 L 7.308594 7.914062 L 7.308594 8.175781 Z M 7.511719 8.207031 L 7.292969 8.210938 C 7.28125 8.210938 7.273438 8.203125 7.273438 8.191406 L 7.277344 7.898438 C 7.277344 7.890625 7.285156 7.882812 7.292969 7.882812 L 7.511719 7.878906 C 7.523438 7.878906 7.53125 7.886719 7.53125 7.898438 L 7.53125 8.191406 C 7.53125 8.199219 7.523438 8.207031 7.511719 8.207031 Z M 7.097656 7.910156 L 7.097656 8.175781 L 7.179688 8.175781 L 7.179688 7.910156 Z M 7.078125 8.175781 L 7.078125 7.910156 L 6.996094 7.910156 L 6.996094 8.175781 Z M 7.195312 8.207031 L 6.976562 8.207031 C 6.96875 8.207031 6.960938 8.199219 6.960938 8.191406 L 6.960938 7.894531 C 6.960938 7.886719 6.96875 7.878906 6.980469 7.878906 L 7.195312 7.878906 C 7.207031 7.878906 7.214844 7.886719 7.214844 7.894531 L 7.210938 8.191406 C 7.210938 8.199219 7.203125 8.207031 7.195312 8.207031 Z M 7.414062 7.476562 L 7.414062 7.738281 L 7.496094 7.738281 L 7.496094 7.476562 Z M 7.390625 7.738281 L 7.390625 7.476562 L 7.308594 7.476562 L 7.308594 7.738281 Z M 7.511719 7.773438 L 7.292969 7.773438 C 7.28125 7.773438 7.273438 7.765625 7.273438 7.757812 L 7.277344 7.460938 C 7.277344 7.449219 7.285156 7.441406 7.292969 7.441406 L 7.511719 7.441406 C 7.523438 7.441406 7.53125 7.449219 7.53125 7.460938 L 7.53125 7.753906 C 7.53125 7.753906 7.53125 7.757812 7.53125 7.757812 C 7.53125 7.765625 7.523438 7.773438 7.511719 7.773438 Z M 7.097656 7.476562 L 7.097656 7.738281 L 7.179688 7.738281 L 7.183594 7.476562 Z M 7.078125 7.738281 L 7.078125 7.476562 L 6.996094 7.476562 L 6.996094 7.738281 Z M 7.199219 7.773438 L 6.976562 7.773438 C 6.96875 7.773438 6.960938 7.765625 6.960938 7.757812 L 6.960938 7.460938 C 6.960938 7.449219 6.96875 7.441406 6.980469 7.441406 L 7.199219 7.441406 C 7.207031 7.441406 7.214844 7.449219 7.214844 7.460938 L 7.214844 7.753906 C 7.214844 7.753906 7.214844 7.757812 7.214844 7.757812 C 7.214844 7.765625 7.207031 7.773438 7.199219 7.773438 Z M 8.328125 6.753906 L 8.328125 7.015625 L 8.410156 7.015625 L 8.410156 6.753906 Z M 8.308594 7.015625 L 8.308594 6.753906 L 8.226562 6.753906 L 8.226562 7.015625 Z M 8.429688 7.050781 L 8.207031 7.050781 C 8.199219 7.050781 8.191406 7.042969 8.191406 7.03125 L 8.191406 6.738281 C 8.191406 6.734375 8.191406 6.734375 8.191406 6.734375 C 8.191406 6.726562 8.199219 6.71875 8.210938 6.71875 L 8.429688 6.71875 C 8.4375 6.71875 8.445312 6.726562 8.445312 6.734375 L 8.445312 7.03125 C 8.445312 7.042969 8.4375 7.050781 8.429688 7.050781 Z M 8.011719 6.753906 L 8.011719 7.015625 L 8.09375 7.015625 L 8.09375 6.753906 Z M 7.988281 7.015625 L 7.988281 6.753906 L 7.90625 6.753906 L 7.90625 7.015625 Z M 8.109375 7.050781 L 7.890625 7.050781 C 7.878906 7.050781 7.871094 7.042969 7.871094 7.03125 L 7.871094 6.738281 C 7.871094 6.734375 7.871094 6.734375 7.871094 6.734375 C 7.871094 6.726562 7.878906 6.71875 7.890625 6.71875 L 8.109375 6.71875 C 8.121094 6.71875 8.128906 6.726562 8.128906 6.734375 L 8.125 7.03125 C 8.125 7.042969 8.117188 7.050781 8.109375 7.050781 Z M 7.695312 6.753906 L 7.695312 7.015625 L 7.777344 7.015625 L 7.777344 6.753906 Z M 7.675781 7.015625 L 7.675781 6.753906 L 7.59375 6.753906 L 7.589844 7.015625 Z M 7.792969 7.050781 L 7.574219 7.050781 C 7.566406 7.050781 7.558594 7.042969 7.558594 7.03125 L 7.558594 6.738281 C 7.558594 6.734375 7.558594 6.734375 7.558594 6.734375 C 7.558594 6.726562 7.566406 6.71875 7.574219 6.71875 L 7.796875 6.71875 C 7.804688 6.71875 7.8125 6.726562 7.8125 6.734375 L 7.8125 7.03125 C 7.8125 7.042969 7.804688 7.050781 7.792969 7.050781 Z M 8.925781 7.914062 L 8.925781 8.175781 L 9.007812 8.175781 L 9.007812 7.914062 Z M 8.902344 8.175781 L 8.902344 7.914062 L 8.820312 7.914062 L 8.820312 8.175781 Z M 9.023438 8.207031 L 8.804688 8.210938 C 8.792969 8.210938 8.785156 8.203125 8.785156 8.191406 L 8.789062 7.898438 C 8.789062 7.890625 8.792969 7.882812 8.804688 7.882812 L 9.023438 7.878906 C 9.035156 7.878906 9.042969 7.886719 9.042969 7.898438 L 9.039062 8.191406 C 9.039062 8.199219 9.03125 8.207031 9.023438 8.207031 Z M 8.609375 7.910156 L 8.609375 8.171875 L 8.691406 8.171875 L 8.691406 7.910156 Z M 8.589844 8.171875 L 8.589844 7.910156 L 8.507812 7.910156 L 8.507812 8.171875 Z M 8.707031 8.207031 L 8.488281 8.207031 C 8.480469 8.207031 8.472656 8.199219 8.472656 8.191406 L 8.472656 7.894531 C 8.472656 7.886719 8.480469 7.878906 8.488281 7.878906 L 8.707031 7.878906 C 8.71875 7.878906 8.726562 7.886719 8.726562 7.894531 L 8.722656 8.191406 C 8.722656 8.199219 8.714844 8.207031 8.707031 8.207031 Z M 8.925781 7.476562 L 8.925781 7.738281 L 9.007812 7.738281 L 9.007812 7.476562 Z M 8.902344 7.738281 L 8.902344 7.476562 L 8.820312 7.476562 L 8.820312 7.738281 Z M 9.023438 7.773438 L 8.804688 7.773438 C 8.792969 7.773438 8.785156 7.765625 8.785156 7.757812 L 8.789062 7.460938 C 8.789062 7.449219 8.796875 7.441406 8.804688 7.441406 L 9.023438 7.441406 C 9.035156 7.441406 9.042969 7.449219 9.042969 7.460938 L 9.039062 7.753906 C 9.039062 7.753906 9.039062 7.757812 9.039062 7.757812 C 9.039062 7.765625 9.03125 7.773438 9.023438 7.773438 Z M 8.609375 7.476562 L 8.609375 7.738281 L 8.691406 7.738281 L 8.691406 7.476562 Z M 8.589844 7.738281 L 8.589844 7.476562 L 8.507812 7.476562 L 8.507812 7.738281 Z M 8.707031 7.773438 L 8.488281 7.773438 C 8.480469 7.773438 8.472656 7.765625 8.472656 7.757812 L 8.472656 7.460938 C 8.472656 7.449219 8.480469 7.441406 8.488281 7.441406 L 8.710938 7.441406 C 8.71875 7.441406 8.726562 7.449219 8.726562 7.460938 L 8.726562 7.753906 C 8.726562 7.753906 8.726562 7.757812 8.726562 7.757812 C 8.726562 7.765625 8.71875 7.773438 8.707031 7.773438 Z M 8.570312 6.503906 C 8.570312 6.503906 8.574219 6.503906 8.574219 6.503906 L 8.628906 6.503906 L 8.132812 6.15625 C 8.125 6.152344 8.117188 6.144531 8.113281 6.140625 C 8.074219 6.113281 8.035156 6.085938 7.996094 6.085938 C 7.996094 6.085938 7.992188 6.085938 7.992188 6.085938 C 7.953125 6.085938 7.910156 6.113281 7.875 6.140625 C 7.871094 6.144531 7.863281 6.152344 7.855469 6.15625 L 7.359375 6.503906 L 7.414062 6.503906 C 7.417969 6.503906 7.421875 6.507812 7.421875 6.507812 C 7.425781 6.507812 7.429688 6.503906 7.433594 6.503906 Z M 8.582031 7.230469 L 9.210938 7.230469 L 9.046875 7.011719 C 9.03125 6.988281 9.015625 6.972656 9 6.964844 C 8.984375 6.957031 8.96875 6.953125 8.941406 6.953125 L 8.585938 6.953125 Z M 7.796875 7.804688 L 8.1875 7.804688 C 8.199219 7.804688 8.207031 7.8125 8.207031 7.820312 L 8.207031 8.453125 L 8.324219 8.453125 L 8.320312 7.261719 L 7.671875 7.261719 L 7.675781 8.453125 L 7.777344 8.453125 L 7.777344 7.820312 C 7.777344 7.8125 7.785156 7.804688 7.796875 7.804688 Z M 8.171875 7.835938 L 7.8125 7.835938 L 7.8125 8.453125 L 8.171875 8.453125 Z M 8.355469 7.261719 L 8.359375 8.460938 L 9.046875 8.460938 C 9.09375 8.460938 9.117188 8.449219 9.128906 8.433594 C 9.140625 8.410156 9.144531 8.378906 9.144531 8.328125 L 9.144531 7.261719 Z M 7.640625 8.460938 L 7.640625 7.261719 L 6.867188 7.261719 L 6.867188 8.328125 C 6.867188 8.378906 6.867188 8.410156 6.882812 8.433594 C 6.894531 8.449219 6.917969 8.460938 6.960938 8.460938 Z M 7.640625 8.460938 "/>
</g>
</g>
</svg>
