<?xml version="1.0" encoding="UTF-8"?>
<svg xmlns="http://www.w3.org/2000/svg" xmlns:xlink="http://www.w3.org/1999/xlink" width="50px" height="50px" viewBox="0 0 50 50" version="1.1">
<defs>
<clipPath id="clip1">
  <path d="M 7.5 7 L 42.5 7 L 42.5 43 L 7.5 43 Z M 7.5 7 "/>
</clipPath>
<clipPath id="clip2">
  <path d="M 14.5 26.449219 L 35.5 26.449219 L 35.5 28.664062 L 14.5 28.664062 Z M 14.5 26.449219 "/>
</clipPath>
<clipPath id="clip3">
  <path d="M 22.613281 21.335938 L 27.386719 21.335938 L 27.386719 25.929688 L 22.613281 25.929688 Z M 22.613281 21.335938 "/>
</clipPath>
</defs>
<g id="surface1">
<rect x="0" y="0" width="50" height="50" style="fill:rgb(31.372549%,62.745098%,37.647059%);fill-opacity:1;stroke:none;"/>
<g clip-path="url(#clip1)" clip-rule="nonzero">
<path style=" stroke:none;fill-rule:nonzero;fill:rgb(100%,100%,100%);fill-opacity:1;" d="M 41.179688 25 L 41.898438 23.753906 C 43.136719 21.609375 42.402344 18.867188 40.257812 17.628906 L 39.011719 16.910156 L 39.011719 15.472656 C 39.011719 12.996094 37.003906 10.988281 34.527344 10.988281 L 33.089844 10.988281 L 32.371094 9.742188 C 31.132812 7.597656 28.390625 6.863281 26.246094 8.101562 L 25 8.820312 L 23.753906 8.101562 C 21.609375 6.863281 18.867188 7.597656 17.628906 9.742188 L 16.910156 10.988281 L 15.472656 10.988281 C 12.996094 10.988281 10.988281 12.996094 10.988281 15.472656 L 10.988281 16.910156 L 9.742188 17.628906 C 7.597656 18.867188 6.863281 21.609375 8.101562 23.753906 L 8.820312 25 L 8.101562 26.246094 C 6.863281 28.390625 7.597656 31.132812 9.742188 32.371094 L 10.988281 33.089844 L 10.988281 34.527344 C 10.988281 37.003906 12.996094 39.011719 15.472656 39.011719 L 16.910156 39.011719 L 17.628906 40.257812 C 18.867188 42.402344 21.609375 43.136719 23.753906 41.898438 L 25 41.179688 L 26.246094 41.898438 C 28.390625 43.136719 31.132812 42.402344 32.371094 40.257812 L 33.089844 39.011719 L 34.527344 39.011719 C 37.003906 39.011719 39.011719 37.003906 39.011719 34.527344 L 39.011719 33.089844 L 40.257812 32.371094 C 42.402344 31.132812 43.136719 28.390625 41.898438 26.246094 Z M 40.0625 17.96875 C 41.007812 18.515625 41.683594 19.398438 41.96875 20.453125 C 42.25 21.507812 42.105469 22.613281 41.558594 23.558594 L 40.953125 24.605469 L 39.011719 21.246094 L 39.011719 17.363281 Z M 34.96875 34.96875 L 28.648438 38.621094 L 21.351562 38.621094 L 15.03125 34.96875 L 11.378906 28.648438 L 11.378906 21.351562 L 15.03125 15.03125 L 21.351562 11.378906 L 28.648438 11.378906 L 34.96875 15.03125 L 38.621094 21.351562 L 38.621094 28.648438 Z M 38.617188 29.433594 L 38.617188 32.863281 L 35.648438 34.578125 Z M 34.578125 35.648438 L 32.863281 38.617188 L 29.433594 38.617188 Z M 27.96875 39.011719 L 25 40.726562 L 22.03125 39.011719 Z M 20.566406 38.617188 L 17.136719 38.617188 L 15.421875 35.648438 Z M 14.351562 34.578125 L 11.378906 32.863281 L 11.378906 29.433594 Z M 10.988281 27.96875 L 9.273438 25 L 10.988281 22.03125 Z M 11.378906 20.566406 L 11.378906 17.136719 L 14.351562 15.421875 Z M 15.421875 14.351562 L 17.136719 11.378906 L 20.566406 11.378906 Z M 22.03125 10.988281 L 25 9.273438 L 27.96875 10.988281 Z M 29.433594 11.378906 L 32.863281 11.378906 L 34.578125 14.351562 Z M 35.648438 15.421875 L 38.617188 17.136719 L 38.617188 20.566406 Z M 39.011719 22.03125 L 40.726562 25 L 39.011719 27.96875 Z M 34.527344 11.378906 C 35.621094 11.378906 36.648438 11.804688 37.421875 12.578125 C 38.195312 13.351562 38.621094 14.378906 38.621094 15.472656 L 38.621094 16.683594 L 35.257812 14.742188 L 33.316406 11.378906 Z M 26.441406 8.441406 C 27.386719 7.894531 28.492188 7.75 29.546875 8.03125 C 30.601562 8.316406 31.484375 8.992188 32.03125 9.9375 L 32.636719 10.988281 L 28.753906 10.988281 L 25.390625 9.046875 Z M 17.96875 9.9375 C 18.515625 8.992188 19.398438 8.316406 20.453125 8.03125 C 21.507812 7.75 22.613281 7.894531 23.558594 8.441406 L 24.605469 9.046875 L 21.246094 10.988281 L 17.363281 10.988281 Z M 11.378906 15.472656 C 11.378906 14.378906 11.804688 13.351562 12.578125 12.578125 C 13.351562 11.804688 14.378906 11.378906 15.472656 11.378906 L 16.683594 11.378906 L 14.742188 14.742188 L 11.378906 16.683594 Z M 8.441406 23.558594 C 7.894531 22.613281 7.75 21.507812 8.03125 20.453125 C 8.316406 19.398438 8.992188 18.515625 9.9375 17.96875 L 10.988281 17.363281 L 10.988281 21.246094 L 9.046875 24.609375 Z M 9.9375 32.03125 C 8.992188 31.484375 8.316406 30.601562 8.03125 29.546875 C 7.75 28.492188 7.894531 27.386719 8.441406 26.441406 L 9.046875 25.390625 L 10.988281 28.753906 L 10.988281 32.636719 Z M 15.472656 38.617188 C 14.378906 38.617188 13.351562 38.195312 12.578125 37.421875 C 11.804688 36.648438 11.378906 35.621094 11.378906 34.527344 L 11.378906 33.316406 L 14.742188 35.257812 L 16.683594 38.617188 Z M 23.558594 41.558594 C 22.613281 42.105469 21.507812 42.25 20.453125 41.96875 C 19.398438 41.683594 18.515625 41.007812 17.96875 40.0625 L 17.363281 39.011719 L 21.246094 39.011719 L 24.609375 40.953125 Z M 32.03125 40.0625 C 31.484375 41.007812 30.601562 41.683594 29.546875 41.96875 C 28.492188 42.25 27.386719 42.105469 26.441406 41.558594 L 25.390625 40.953125 L 28.753906 39.011719 L 32.636719 39.011719 Z M 38.617188 34.527344 C 38.617188 35.621094 38.195312 36.648438 37.421875 37.421875 C 36.648438 38.195312 35.621094 38.621094 34.527344 38.621094 L 33.316406 38.621094 L 35.257812 35.257812 L 38.617188 33.316406 Z M 41.96875 29.546875 C 41.683594 30.601562 41.007812 31.484375 40.0625 32.03125 L 39.011719 32.636719 L 39.011719 28.753906 L 40.953125 25.390625 L 41.558594 26.441406 C 42.105469 27.386719 42.25 28.492188 41.96875 29.546875 Z M 41.96875 29.546875 "/>
</g>
<g clip-path="url(#clip2)" clip-rule="nonzero">
<path style=" stroke:none;fill-rule:nonzero;fill:rgb(100%,100%,100%);fill-opacity:1;" d="M 15.035156 27.328125 L 14.976562 27.519531 L 15.382812 27.519531 L 15.328125 27.328125 C 15.304688 27.242188 15.277344 27.15625 15.253906 27.066406 C 15.230469 26.976562 15.207031 26.886719 15.183594 26.800781 L 15.175781 26.800781 C 15.152344 26.890625 15.128906 26.980469 15.105469 27.066406 C 15.085938 27.15625 15.058594 27.242188 15.035156 27.328125 Z M 14.789062 28.171875 L 14.5 28.171875 L 15.019531 26.582031 L 15.351562 26.582031 L 15.871094 28.171875 L 15.570312 28.171875 L 15.449219 27.742188 L 14.914062 27.742188 Z M 16.621094 28.203125 C 16.566406 28.203125 16.511719 28.1875 16.453125 28.164062 C 16.398438 28.136719 16.34375 28.097656 16.296875 28.046875 L 16.289062 28.046875 L 16.261719 28.171875 L 16.042969 28.171875 L 16.042969 26.453125 L 16.320312 26.453125 L 16.320312 26.898438 L 16.316406 27.097656 C 16.363281 27.054688 16.417969 27.019531 16.480469 26.992188 C 16.539062 26.964844 16.597656 26.949219 16.660156 26.949219 C 16.734375 26.949219 16.800781 26.964844 16.859375 26.992188 C 16.917969 27.019531 16.96875 27.0625 17.007812 27.113281 C 17.050781 27.167969 17.078125 27.230469 17.101562 27.304688 C 17.121094 27.378906 17.132812 27.460938 17.132812 27.554688 C 17.132812 27.65625 17.117188 27.75 17.089844 27.828125 C 17.0625 27.910156 17.023438 27.976562 16.976562 28.03125 C 16.929688 28.085938 16.875 28.128906 16.8125 28.160156 C 16.753906 28.1875 16.6875 28.203125 16.621094 28.203125 Z M 16.5625 27.972656 C 16.640625 27.972656 16.710938 27.9375 16.761719 27.867188 C 16.816406 27.800781 16.84375 27.695312 16.84375 27.558594 C 16.84375 27.441406 16.824219 27.347656 16.78125 27.28125 C 16.742188 27.214844 16.675781 27.179688 16.585938 27.179688 C 16.5 27.179688 16.414062 27.226562 16.320312 27.3125 L 16.320312 27.871094 C 16.363281 27.910156 16.40625 27.933594 16.445312 27.949219 C 16.488281 27.964844 16.527344 27.972656 16.5625 27.972656 Z M 17.671875 28.203125 C 17.566406 28.203125 17.484375 28.171875 17.417969 28.105469 C 17.351562 28.042969 17.320312 27.957031 17.320312 27.851562 C 17.320312 27.789062 17.332031 27.734375 17.359375 27.683594 C 17.386719 27.632812 17.429688 27.589844 17.488281 27.554688 C 17.542969 27.519531 17.617188 27.488281 17.707031 27.464844 C 17.792969 27.441406 17.898438 27.421875 18.023438 27.410156 C 18.023438 27.378906 18.015625 27.347656 18.011719 27.320312 C 18.003906 27.292969 17.992188 27.265625 17.972656 27.246094 C 17.957031 27.222656 17.933594 27.207031 17.90625 27.195312 C 17.878906 27.179688 17.84375 27.175781 17.804688 27.175781 C 17.746094 27.175781 17.6875 27.1875 17.632812 27.210938 C 17.578125 27.230469 17.523438 27.261719 17.46875 27.292969 L 17.367188 27.105469 C 17.433594 27.0625 17.507812 27.027344 17.589844 26.996094 C 17.671875 26.964844 17.761719 26.949219 17.859375 26.949219 C 18.007812 26.949219 18.117188 26.992188 18.191406 27.082031 C 18.265625 27.171875 18.304688 27.296875 18.304688 27.464844 L 18.304688 28.171875 L 18.074219 28.171875 L 18.050781 28.042969 L 18.042969 28.042969 C 17.988281 28.085938 17.933594 28.125 17.871094 28.15625 C 17.8125 28.1875 17.746094 28.203125 17.671875 28.203125 Z M 17.761719 27.984375 C 17.8125 27.984375 17.855469 27.972656 17.894531 27.949219 C 17.933594 27.925781 17.976562 27.894531 18.023438 27.851562 L 18.023438 27.585938 C 17.941406 27.59375 17.875 27.605469 17.820312 27.625 C 17.765625 27.640625 17.71875 27.65625 17.683594 27.679688 C 17.652344 27.699219 17.625 27.722656 17.613281 27.746094 C 17.597656 27.773438 17.589844 27.800781 17.589844 27.832031 C 17.589844 27.882812 17.605469 27.921875 17.636719 27.949219 C 17.671875 27.972656 17.710938 27.984375 17.761719 27.984375 Z M 18.972656 28.203125 C 18.890625 28.203125 18.808594 28.1875 18.726562 28.15625 C 18.648438 28.125 18.578125 28.085938 18.519531 28.039062 L 18.652344 27.855469 C 18.703125 27.898438 18.757812 27.933594 18.8125 27.957031 C 18.863281 27.980469 18.921875 27.992188 18.980469 27.992188 C 19.046875 27.992188 19.09375 27.976562 19.125 27.949219 C 19.15625 27.925781 19.171875 27.890625 19.171875 27.847656 C 19.171875 27.824219 19.164062 27.800781 19.148438 27.78125 C 19.136719 27.765625 19.117188 27.746094 19.09375 27.734375 C 19.066406 27.71875 19.039062 27.703125 19.007812 27.691406 C 18.976562 27.679688 18.949219 27.667969 18.917969 27.65625 C 18.878906 27.640625 18.839844 27.625 18.796875 27.605469 C 18.757812 27.585938 18.722656 27.5625 18.6875 27.535156 C 18.65625 27.503906 18.632812 27.472656 18.613281 27.4375 C 18.589844 27.402344 18.582031 27.355469 18.582031 27.308594 C 18.582031 27.203125 18.621094 27.117188 18.699219 27.050781 C 18.777344 26.980469 18.882812 26.949219 19.015625 26.949219 C 19.097656 26.949219 19.175781 26.964844 19.242188 26.992188 C 19.308594 27.023438 19.363281 27.054688 19.414062 27.09375 L 19.285156 27.261719 C 19.242188 27.230469 19.199219 27.207031 19.15625 27.1875 C 19.113281 27.171875 19.070312 27.160156 19.019531 27.160156 C 18.960938 27.160156 18.917969 27.171875 18.890625 27.199219 C 18.859375 27.222656 18.847656 27.253906 18.847656 27.292969 C 18.847656 27.316406 18.851562 27.335938 18.867188 27.355469 C 18.878906 27.371094 18.898438 27.386719 18.921875 27.398438 C 18.945312 27.414062 18.972656 27.425781 19 27.4375 C 19.03125 27.449219 19.0625 27.457031 19.09375 27.46875 C 19.136719 27.484375 19.175781 27.5 19.214844 27.519531 C 19.257812 27.539062 19.292969 27.5625 19.328125 27.589844 C 19.359375 27.617188 19.386719 27.652344 19.40625 27.691406 C 19.425781 27.730469 19.4375 27.777344 19.4375 27.832031 C 19.4375 27.886719 19.425781 27.933594 19.40625 27.976562 C 19.386719 28.023438 19.355469 28.0625 19.320312 28.09375 C 19.28125 28.128906 19.230469 28.152344 19.171875 28.171875 C 19.113281 28.191406 19.046875 28.203125 18.972656 28.203125 Z M 19.976562 28.203125 C 19.871094 28.203125 19.789062 28.171875 19.722656 28.105469 C 19.65625 28.042969 19.625 27.957031 19.625 27.851562 C 19.625 27.789062 19.636719 27.734375 19.664062 27.683594 C 19.691406 27.632812 19.734375 27.589844 19.792969 27.554688 C 19.847656 27.519531 19.921875 27.488281 20.011719 27.464844 C 20.097656 27.441406 20.207031 27.421875 20.328125 27.410156 C 20.328125 27.378906 20.324219 27.347656 20.316406 27.320312 C 20.308594 27.292969 20.296875 27.265625 20.277344 27.246094 C 20.261719 27.222656 20.238281 27.207031 20.210938 27.195312 C 20.183594 27.179688 20.148438 27.175781 20.109375 27.175781 C 20.050781 27.175781 19.992188 27.1875 19.9375 27.210938 C 19.882812 27.230469 19.828125 27.261719 19.773438 27.292969 L 19.671875 27.105469 C 19.738281 27.0625 19.8125 27.027344 19.894531 26.996094 C 19.976562 26.964844 20.066406 26.949219 20.164062 26.949219 C 20.3125 26.949219 20.425781 26.992188 20.5 27.082031 C 20.570312 27.171875 20.609375 27.296875 20.609375 27.464844 L 20.609375 28.171875 L 20.378906 28.171875 L 20.359375 28.042969 L 20.347656 28.042969 C 20.292969 28.085938 20.238281 28.125 20.175781 28.15625 C 20.117188 28.1875 20.050781 28.203125 19.976562 28.203125 Z M 20.066406 27.984375 C 20.117188 27.984375 20.160156 27.972656 20.199219 27.949219 C 20.242188 27.925781 20.285156 27.894531 20.328125 27.851562 L 20.328125 27.585938 C 20.246094 27.59375 20.179688 27.605469 20.125 27.625 C 20.070312 27.640625 20.023438 27.65625 19.992188 27.679688 C 19.957031 27.699219 19.933594 27.722656 19.917969 27.746094 C 19.902344 27.773438 19.894531 27.800781 19.894531 27.832031 C 19.894531 27.882812 19.910156 27.921875 19.945312 27.949219 C 19.976562 27.972656 20.019531 27.984375 20.066406 27.984375 Z M 21.222656 28.171875 L 20.945312 28.171875 L 20.945312 26.976562 L 21.175781 26.976562 L 21.195312 27.140625 L 21.207031 27.140625 C 21.257812 27.085938 21.316406 27.042969 21.378906 27.003906 C 21.441406 26.96875 21.515625 26.949219 21.597656 26.949219 C 21.726562 26.949219 21.820312 26.988281 21.878906 27.070312 C 21.933594 27.152344 21.964844 27.269531 21.964844 27.425781 L 21.964844 28.171875 L 21.683594 28.171875 L 21.683594 27.460938 C 21.683594 27.363281 21.671875 27.292969 21.640625 27.25 C 21.613281 27.210938 21.5625 27.191406 21.496094 27.191406 C 21.445312 27.191406 21.398438 27.203125 21.359375 27.226562 C 21.320312 27.253906 21.273438 27.289062 21.222656 27.339844 Z M 23.074219 28.171875 L 22.820312 28.171875 L 22.820312 26.582031 L 23.136719 26.582031 L 23.421875 27.359375 C 23.4375 27.410156 23.453125 27.460938 23.472656 27.515625 C 23.488281 27.566406 23.503906 27.621094 23.523438 27.671875 L 23.53125 27.671875 C 23.550781 27.621094 23.566406 27.566406 23.582031 27.515625 C 23.597656 27.460938 23.613281 27.410156 23.632812 27.359375 L 23.90625 26.582031 L 24.226562 26.582031 L 24.226562 28.171875 L 23.96875 28.171875 L 23.96875 27.445312 C 23.96875 27.410156 23.96875 27.367188 23.972656 27.324219 C 23.972656 27.28125 23.976562 27.234375 23.980469 27.191406 C 23.984375 27.148438 23.988281 27.101562 23.992188 27.058594 C 23.996094 27.015625 24 26.976562 24.003906 26.9375 L 23.996094 26.9375 L 23.867188 27.308594 L 23.605469 28.023438 L 23.4375 28.023438 L 23.175781 27.308594 L 23.046875 26.9375 L 23.039062 26.9375 C 23.042969 26.976562 23.042969 27.015625 23.050781 27.058594 C 23.054688 27.101562 23.058594 27.148438 23.0625 27.191406 C 23.066406 27.234375 23.066406 27.28125 23.070312 27.324219 C 23.074219 27.367188 23.074219 27.410156 23.074219 27.445312 Z M 24.964844 28.203125 C 24.835938 28.203125 24.742188 28.160156 24.683594 28.078125 C 24.625 27.996094 24.597656 27.878906 24.597656 27.726562 L 24.597656 26.976562 L 24.875 26.976562 L 24.875 27.691406 C 24.875 27.789062 24.890625 27.859375 24.917969 27.902344 C 24.949219 27.941406 24.996094 27.960938 25.0625 27.960938 C 25.113281 27.960938 25.160156 27.949219 25.199219 27.921875 C 25.238281 27.898438 25.28125 27.855469 25.328125 27.796875 L 25.328125 26.976562 L 25.605469 26.976562 L 25.605469 28.171875 L 25.378906 28.171875 L 25.355469 28 L 25.347656 28 C 25.296875 28.058594 25.238281 28.109375 25.179688 28.148438 C 25.117188 28.183594 25.046875 28.203125 24.964844 28.203125 Z M 26.242188 28.171875 L 25.960938 28.171875 L 25.960938 26.976562 L 26.191406 26.976562 L 26.210938 27.140625 L 26.222656 27.140625 C 26.277344 27.085938 26.332031 27.042969 26.394531 27.003906 C 26.457031 26.96875 26.53125 26.949219 26.613281 26.949219 C 26.742188 26.949219 26.835938 26.988281 26.894531 27.070312 C 26.953125 27.152344 26.980469 27.269531 26.980469 27.425781 L 26.980469 28.171875 L 26.703125 28.171875 L 26.703125 27.460938 C 26.703125 27.363281 26.6875 27.292969 26.65625 27.25 C 26.628906 27.210938 26.582031 27.191406 26.515625 27.191406 C 26.460938 27.191406 26.417969 27.203125 26.375 27.226562 C 26.335938 27.253906 26.292969 27.289062 26.242188 27.339844 Z M 27.605469 28.171875 L 27.324219 28.171875 L 27.324219 26.976562 L 27.605469 26.976562 Z M 27.464844 26.769531 C 27.414062 26.769531 27.375 26.753906 27.34375 26.726562 C 27.308594 26.695312 27.292969 26.65625 27.292969 26.609375 C 27.292969 26.5625 27.308594 26.523438 27.34375 26.496094 C 27.375 26.464844 27.414062 26.449219 27.464844 26.449219 C 27.515625 26.449219 27.558594 26.464844 27.589844 26.496094 C 27.621094 26.523438 27.640625 26.5625 27.640625 26.609375 C 27.640625 26.65625 27.621094 26.695312 27.589844 26.726562 C 27.558594 26.753906 27.515625 26.769531 27.464844 26.769531 Z M 28.460938 28.203125 C 28.378906 28.203125 28.304688 28.1875 28.234375 28.160156 C 28.164062 28.132812 28.101562 28.09375 28.050781 28.039062 C 27.996094 27.984375 27.957031 27.921875 27.929688 27.84375 C 27.898438 27.765625 27.882812 27.675781 27.882812 27.578125 C 27.882812 27.476562 27.902344 27.390625 27.933594 27.3125 C 27.964844 27.234375 28.007812 27.167969 28.066406 27.113281 C 28.121094 27.0625 28.183594 27.019531 28.257812 26.992188 C 28.328125 26.964844 28.402344 26.949219 28.484375 26.949219 C 28.5625 26.949219 28.628906 26.960938 28.683594 26.988281 C 28.738281 27.015625 28.789062 27.046875 28.832031 27.082031 L 28.699219 27.265625 C 28.664062 27.238281 28.632812 27.214844 28.601562 27.199219 C 28.570312 27.1875 28.535156 27.179688 28.496094 27.179688 C 28.402344 27.179688 28.320312 27.214844 28.261719 27.285156 C 28.203125 27.359375 28.171875 27.457031 28.171875 27.578125 C 28.171875 27.699219 28.203125 27.792969 28.261719 27.867188 C 28.320312 27.9375 28.394531 27.972656 28.492188 27.972656 C 28.539062 27.972656 28.582031 27.964844 28.625 27.945312 C 28.664062 27.921875 28.703125 27.898438 28.738281 27.871094 L 28.851562 28.058594 C 28.792969 28.105469 28.730469 28.140625 28.664062 28.167969 C 28.597656 28.191406 28.53125 28.203125 28.460938 28.203125 Z M 29.367188 28.171875 L 29.085938 28.171875 L 29.085938 26.976562 L 29.367188 26.976562 Z M 29.226562 26.769531 C 29.179688 26.769531 29.136719 26.753906 29.105469 26.726562 C 29.070312 26.695312 29.054688 26.65625 29.054688 26.609375 C 29.054688 26.5625 29.070312 26.523438 29.105469 26.496094 C 29.136719 26.464844 29.179688 26.449219 29.226562 26.449219 C 29.277344 26.449219 29.320312 26.464844 29.351562 26.496094 C 29.386719 26.523438 29.402344 26.5625 29.402344 26.609375 C 29.402344 26.65625 29.386719 26.695312 29.351562 26.726562 C 29.320312 26.753906 29.277344 26.769531 29.226562 26.769531 Z M 30.003906 28.644531 L 29.726562 28.644531 L 29.726562 26.976562 L 29.957031 26.976562 L 29.976562 27.105469 L 29.984375 27.105469 C 30.035156 27.0625 30.089844 27.027344 30.152344 26.996094 C 30.214844 26.964844 30.277344 26.949219 30.34375 26.949219 C 30.421875 26.949219 30.488281 26.964844 30.542969 26.992188 C 30.601562 27.019531 30.652344 27.0625 30.691406 27.113281 C 30.730469 27.167969 30.761719 27.230469 30.785156 27.308594 C 30.804688 27.382812 30.816406 27.464844 30.816406 27.558594 C 30.816406 27.660156 30.800781 27.75 30.773438 27.832031 C 30.746094 27.910156 30.707031 27.980469 30.660156 28.035156 C 30.613281 28.089844 30.558594 28.128906 30.496094 28.160156 C 30.433594 28.1875 30.371094 28.203125 30.304688 28.203125 C 30.253906 28.203125 30.199219 28.191406 30.148438 28.167969 C 30.097656 28.144531 30.046875 28.113281 29.996094 28.070312 L 30.003906 28.269531 Z M 30.246094 27.972656 C 30.324219 27.972656 30.390625 27.9375 30.445312 27.867188 C 30.5 27.800781 30.527344 27.695312 30.527344 27.558594 C 30.527344 27.441406 30.503906 27.347656 30.464844 27.28125 C 30.425781 27.214844 30.359375 27.179688 30.269531 27.179688 C 30.183594 27.179688 30.097656 27.226562 30.003906 27.3125 L 30.003906 27.871094 C 30.046875 27.910156 30.089844 27.933594 30.132812 27.949219 C 30.171875 27.964844 30.210938 27.972656 30.246094 27.972656 Z M 31.359375 28.203125 C 31.253906 28.203125 31.167969 28.171875 31.101562 28.105469 C 31.039062 28.042969 31.003906 27.957031 31.003906 27.851562 C 31.003906 27.789062 31.019531 27.734375 31.046875 27.683594 C 31.074219 27.632812 31.113281 27.589844 31.171875 27.554688 C 31.230469 27.519531 31.304688 27.488281 31.390625 27.464844 C 31.480469 27.441406 31.585938 27.421875 31.710938 27.410156 C 31.707031 27.378906 31.703125 27.347656 31.695312 27.320312 C 31.6875 27.292969 31.675781 27.265625 31.660156 27.246094 C 31.640625 27.222656 31.621094 27.207031 31.59375 27.195312 C 31.566406 27.179688 31.53125 27.175781 31.488281 27.175781 C 31.429688 27.175781 31.375 27.1875 31.316406 27.210938 C 31.261719 27.230469 31.207031 27.261719 31.152344 27.292969 L 31.050781 27.105469 C 31.117188 27.0625 31.191406 27.027344 31.277344 26.996094 C 31.359375 26.964844 31.449219 26.949219 31.542969 26.949219 C 31.691406 26.949219 31.804688 26.992188 31.878906 27.082031 C 31.953125 27.171875 31.988281 27.296875 31.988281 27.464844 L 31.988281 28.171875 L 31.757812 28.171875 L 31.738281 28.042969 L 31.726562 28.042969 C 31.675781 28.085938 31.617188 28.125 31.554688 28.15625 C 31.496094 28.1875 31.429688 28.203125 31.359375 28.203125 Z M 31.449219 27.984375 C 31.496094 27.984375 31.542969 27.972656 31.582031 27.949219 C 31.621094 27.925781 31.664062 27.894531 31.710938 27.851562 L 31.710938 27.585938 C 31.628906 27.59375 31.558594 27.605469 31.503906 27.625 C 31.449219 27.640625 31.40625 27.65625 31.371094 27.679688 C 31.335938 27.699219 31.3125 27.722656 31.296875 27.746094 C 31.28125 27.773438 31.277344 27.800781 31.277344 27.832031 C 31.277344 27.882812 31.292969 27.921875 31.324219 27.949219 C 31.355469 27.972656 31.398438 27.984375 31.449219 27.984375 Z M 32.597656 28.203125 C 32.496094 28.203125 32.425781 28.171875 32.386719 28.113281 C 32.34375 28.054688 32.324219 27.972656 32.324219 27.867188 L 32.324219 26.453125 L 32.605469 26.453125 L 32.605469 27.882812 C 32.605469 27.914062 32.609375 27.941406 32.625 27.953125 C 32.636719 27.96875 32.652344 27.972656 32.664062 27.972656 C 32.671875 27.972656 32.679688 27.972656 32.683594 27.972656 C 32.6875 27.972656 32.699219 27.972656 32.710938 27.96875 L 32.746094 28.179688 C 32.707031 28.195312 32.660156 28.203125 32.597656 28.203125 Z M 33.265625 28.171875 L 32.984375 28.171875 L 32.984375 26.976562 L 33.265625 26.976562 Z M 33.125 26.769531 C 33.074219 26.769531 33.035156 26.753906 33 26.726562 C 32.96875 26.695312 32.953125 26.65625 32.953125 26.609375 C 32.953125 26.5625 32.96875 26.523438 33 26.496094 C 33.035156 26.464844 33.074219 26.449219 33.125 26.449219 C 33.175781 26.449219 33.21875 26.464844 33.25 26.496094 C 33.28125 26.523438 33.296875 26.5625 33.296875 26.609375 C 33.296875 26.65625 33.28125 26.695312 33.25 26.726562 C 33.21875 26.753906 33.175781 26.769531 33.125 26.769531 Z M 34.042969 28.203125 C 33.972656 28.203125 33.914062 28.191406 33.867188 28.171875 C 33.820312 28.148438 33.78125 28.121094 33.75 28.082031 C 33.71875 28.042969 33.699219 28 33.683594 27.945312 C 33.671875 27.894531 33.664062 27.835938 33.664062 27.769531 L 33.664062 27.199219 L 33.492188 27.199219 L 33.492188 26.992188 L 33.679688 26.976562 L 33.710938 26.652344 L 33.945312 26.652344 L 33.945312 26.976562 L 34.25 26.976562 L 34.25 27.199219 L 33.945312 27.199219 L 33.945312 27.769531 C 33.945312 27.910156 34 27.980469 34.113281 27.980469 C 34.136719 27.980469 34.15625 27.976562 34.179688 27.972656 C 34.199219 27.964844 34.21875 27.960938 34.238281 27.953125 L 34.285156 28.160156 C 34.253906 28.171875 34.21875 28.179688 34.175781 28.191406 C 34.132812 28.199219 34.089844 28.203125 34.042969 28.203125 Z M 34.582031 28.664062 C 34.546875 28.664062 34.519531 28.664062 34.496094 28.660156 C 34.472656 28.65625 34.449219 28.648438 34.425781 28.640625 L 34.476562 28.421875 C 34.488281 28.425781 34.5 28.429688 34.515625 28.433594 C 34.53125 28.4375 34.546875 28.4375 34.5625 28.4375 C 34.625 28.4375 34.675781 28.421875 34.714844 28.382812 C 34.753906 28.34375 34.78125 28.292969 34.800781 28.234375 L 34.820312 28.160156 L 34.351562 26.976562 L 34.636719 26.976562 L 34.84375 27.566406 C 34.863281 27.617188 34.878906 27.671875 34.894531 27.730469 C 34.914062 27.785156 34.929688 27.84375 34.949219 27.902344 L 34.957031 27.902344 C 34.972656 27.847656 34.988281 27.789062 35.003906 27.730469 C 35.019531 27.675781 35.035156 27.617188 35.046875 27.566406 L 35.230469 26.976562 L 35.5 26.976562 L 35.066406 28.226562 C 35.042969 28.296875 35.015625 28.355469 34.984375 28.410156 C 34.957031 28.464844 34.921875 28.507812 34.882812 28.546875 C 34.847656 28.585938 34.800781 28.613281 34.753906 28.636719 C 34.703125 28.65625 34.644531 28.664062 34.582031 28.664062 Z M 34.582031 28.664062 "/>
</g>
<g clip-path="url(#clip3)" clip-rule="nonzero">
<path style=" stroke:none;fill-rule:nonzero;fill:rgb(100%,100%,100%);fill-opacity:1;" d="M 25.019531 23.550781 L 26.042969 23.550781 L 26.054688 22.253906 L 23.976562 22.253906 L 23.96875 23.550781 Z M 22.816406 23.613281 L 22.644531 23.613281 C 22.628906 23.613281 22.613281 23.597656 22.613281 23.582031 C 22.613281 23.574219 22.617188 23.566406 22.621094 23.558594 L 22.96875 23.097656 C 23.003906 23.050781 23.035156 23.019531 23.074219 22.996094 C 23.109375 22.972656 23.15625 22.964844 23.214844 22.964844 L 23.90625 22.964844 L 23.914062 22.253906 L 23.707031 22.253906 C 23.695312 22.253906 23.6875 22.25 23.679688 22.238281 C 23.667969 22.226562 23.671875 22.203125 23.6875 22.195312 L 24.707031 21.476562 C 24.71875 21.46875 24.730469 21.460938 24.742188 21.453125 C 24.816406 21.394531 24.90625 21.332031 25 21.335938 C 25.097656 21.332031 25.183594 21.394531 25.261719 21.453125 C 25.273438 21.460938 25.285156 21.46875 25.296875 21.476562 L 26.3125 22.195312 C 26.320312 22.199219 26.328125 22.210938 26.328125 22.222656 C 26.328125 22.238281 26.3125 22.253906 26.296875 22.253906 L 26.117188 22.253906 L 26.113281 22.964844 L 26.785156 22.964844 C 26.84375 22.964844 26.886719 22.972656 26.925781 22.996094 C 26.964844 23.019531 26.996094 23.050781 27.03125 23.097656 L 27.378906 23.558594 C 27.382812 23.566406 27.386719 23.574219 27.386719 23.582031 C 27.386719 23.597656 27.371094 23.613281 27.355469 23.613281 L 27.226562 23.613281 L 27.226562 25.617188 C 27.226562 25.71875 27.222656 25.792969 27.1875 25.847656 C 27.152344 25.902344 27.089844 25.925781 26.980469 25.925781 L 23.058594 25.925781 C 22.953125 25.925781 22.890625 25.902344 22.855469 25.847656 C 22.820312 25.792969 22.816406 25.71875 22.816406 25.617188 Z M 23.90625 23.027344 L 23.214844 23.027344 C 23.167969 23.027344 23.132812 23.035156 23.105469 23.054688 C 23.078125 23.070312 23.050781 23.097656 23.019531 23.136719 L 22.710938 23.550781 L 23.902344 23.550781 Z M 23.910156 24.839844 L 23.910156 25.328125 L 24.0625 25.324219 L 24.066406 24.835938 Z M 23.871094 25.328125 L 23.871094 24.839844 L 23.714844 24.839844 L 23.714844 25.328125 Z M 24.097656 25.390625 L 23.683594 25.394531 C 23.664062 25.394531 23.648438 25.378906 23.648438 25.359375 L 23.652344 24.808594 C 23.652344 24.789062 23.667969 24.777344 23.683594 24.777344 L 24.097656 24.773438 C 24.117188 24.773438 24.128906 24.785156 24.128906 24.804688 L 24.128906 25.355469 C 24.128906 25.375 24.113281 25.390625 24.097656 25.390625 Z M 23.320312 24.832031 L 23.320312 25.324219 L 23.46875 25.324219 L 23.46875 24.832031 Z M 23.277344 25.324219 L 23.277344 24.832031 L 23.125 24.832031 L 23.125 25.324219 Z M 23.5 25.390625 L 23.089844 25.390625 C 23.074219 25.390625 23.058594 25.375 23.058594 25.355469 L 23.0625 24.800781 C 23.0625 24.78125 23.074219 24.765625 23.09375 24.765625 L 23.503906 24.765625 C 23.519531 24.765625 23.535156 24.78125 23.535156 24.800781 L 23.53125 25.355469 C 23.53125 25.375 23.519531 25.390625 23.5 25.390625 Z M 23.910156 24.015625 L 23.910156 24.507812 L 24.0625 24.507812 L 24.066406 24.015625 Z M 23.871094 24.507812 L 23.871094 24.015625 L 23.714844 24.015625 L 23.714844 24.507812 Z M 24.097656 24.574219 L 23.683594 24.574219 C 23.664062 24.574219 23.648438 24.558594 23.648438 24.539062 L 23.652344 23.984375 C 23.652344 23.964844 23.667969 23.949219 23.683594 23.949219 L 24.097656 23.949219 C 24.117188 23.949219 24.128906 23.964844 24.128906 23.984375 L 24.128906 24.539062 C 24.128906 24.558594 24.113281 24.574219 24.097656 24.574219 Z M 23.320312 24.015625 L 23.320312 24.507812 L 23.472656 24.507812 L 23.472656 24.015625 Z M 23.277344 24.507812 L 23.277344 24.015625 L 23.125 24.015625 L 23.125 24.507812 Z M 23.503906 24.574219 L 23.089844 24.574219 C 23.074219 24.574219 23.058594 24.558594 23.058594 24.539062 L 23.0625 23.984375 C 23.0625 23.964844 23.074219 23.949219 23.09375 23.949219 L 23.507812 23.949219 C 23.523438 23.949219 23.539062 23.964844 23.539062 23.984375 L 23.539062 24.539062 C 23.539062 24.558594 23.523438 24.574219 23.503906 24.574219 Z M 25.632812 22.652344 L 25.632812 23.144531 L 25.785156 23.144531 L 25.785156 22.652344 Z M 25.589844 23.144531 L 25.589844 22.652344 L 25.4375 22.652344 L 25.4375 23.144531 Z M 25.816406 23.210938 L 25.402344 23.210938 C 25.386719 23.210938 25.371094 23.195312 25.371094 23.179688 L 25.375 22.625 C 25.375 22.621094 25.375 22.621094 25.375 22.621094 C 25.375 22.601562 25.386719 22.589844 25.40625 22.589844 L 25.820312 22.589844 C 25.835938 22.589844 25.851562 22.601562 25.851562 22.621094 L 25.847656 23.175781 C 25.847656 23.175781 25.847656 23.175781 25.847656 23.179688 C 25.847656 23.195312 25.835938 23.210938 25.816406 23.210938 Z M 25.03125 22.652344 L 25.03125 23.144531 L 25.183594 23.144531 L 25.1875 22.652344 Z M 24.992188 23.144531 L 24.992188 22.652344 L 24.839844 22.652344 L 24.835938 23.144531 Z M 25.21875 23.210938 L 24.804688 23.210938 C 24.785156 23.210938 24.773438 23.195312 24.773438 23.179688 L 24.773438 22.625 C 24.773438 22.621094 24.773438 22.621094 24.773438 22.621094 C 24.773438 22.601562 24.789062 22.589844 24.804688 22.589844 L 25.21875 22.589844 C 25.238281 22.589844 25.25 22.601562 25.25 22.621094 L 25.25 23.175781 C 25.25 23.175781 25.25 23.175781 25.25 23.179688 C 25.25 23.195312 25.234375 23.210938 25.21875 23.210938 Z M 24.441406 22.652344 L 24.441406 23.144531 L 24.59375 23.144531 L 24.597656 22.652344 Z M 24.398438 23.144531 L 24.398438 22.652344 L 24.246094 22.652344 L 24.246094 23.144531 Z M 24.625 23.210938 L 24.210938 23.210938 C 24.195312 23.210938 24.179688 23.195312 24.179688 23.179688 L 24.183594 22.625 C 24.183594 22.621094 24.183594 22.621094 24.183594 22.621094 C 24.183594 22.601562 24.195312 22.589844 24.214844 22.589844 L 24.628906 22.589844 C 24.644531 22.589844 24.660156 22.601562 24.660156 22.621094 L 24.660156 23.175781 C 24.660156 23.175781 24.660156 23.175781 24.660156 23.179688 C 24.660156 23.195312 24.644531 23.210938 24.625 23.210938 Z M 26.75 24.835938 L 26.75 25.328125 L 26.90625 25.324219 L 26.90625 24.835938 Z M 26.710938 25.328125 L 26.710938 24.839844 L 26.558594 24.839844 L 26.554688 25.328125 Z M 26.9375 25.390625 L 26.523438 25.394531 C 26.503906 25.394531 26.492188 25.378906 26.492188 25.359375 L 26.492188 24.808594 C 26.492188 24.789062 26.507812 24.773438 26.523438 24.773438 L 26.9375 24.773438 C 26.957031 24.773438 26.972656 24.785156 26.972656 24.804688 L 26.96875 25.355469 C 26.96875 25.375 26.953125 25.390625 26.9375 25.390625 Z M 26.160156 24.832031 L 26.160156 25.324219 L 26.308594 25.324219 L 26.3125 24.832031 Z M 26.121094 25.324219 L 26.121094 24.832031 L 25.964844 24.832031 L 25.964844 25.324219 Z M 26.339844 25.390625 L 25.933594 25.390625 C 25.914062 25.390625 25.898438 25.375 25.898438 25.355469 L 25.902344 24.800781 C 25.902344 24.78125 25.917969 24.765625 25.933594 24.765625 L 26.34375 24.765625 C 26.359375 24.765625 26.375 24.78125 26.375 24.800781 L 26.375 25.355469 C 26.375 25.375 26.359375 25.390625 26.339844 25.390625 Z M 26.75 24.015625 L 26.75 24.507812 L 26.90625 24.507812 L 26.90625 24.015625 Z M 26.710938 24.507812 L 26.710938 24.015625 L 26.558594 24.015625 L 26.554688 24.507812 Z M 26.9375 24.574219 L 26.523438 24.574219 C 26.503906 24.574219 26.492188 24.558594 26.492188 24.539062 L 26.492188 23.984375 C 26.492188 23.964844 26.507812 23.949219 26.523438 23.949219 L 26.9375 23.949219 C 26.957031 23.949219 26.972656 23.964844 26.972656 23.984375 L 26.96875 24.539062 C 26.96875 24.558594 26.953125 24.574219 26.9375 24.574219 Z M 26.160156 24.015625 L 26.160156 24.507812 L 26.3125 24.507812 L 26.316406 24.015625 Z M 26.121094 24.507812 L 26.121094 24.015625 L 25.964844 24.015625 L 25.964844 24.507812 Z M 26.34375 24.574219 L 25.933594 24.574219 C 25.914062 24.574219 25.898438 24.558594 25.898438 24.539062 L 25.902344 23.984375 C 25.902344 23.964844 25.917969 23.949219 25.933594 23.949219 L 26.347656 23.949219 C 26.367188 23.949219 26.378906 23.964844 26.378906 23.984375 L 26.378906 24.539062 C 26.378906 24.558594 26.363281 24.574219 26.34375 24.574219 Z M 26.085938 22.1875 C 26.089844 22.1875 26.089844 22.1875 26.089844 22.1875 L 26.195312 22.1875 L 25.257812 21.527344 C 25.25 21.523438 25.234375 21.511719 25.222656 21.503906 C 25.15625 21.453125 25.078125 21.394531 25.003906 21.398438 C 25 21.398438 25 21.398438 25 21.398438 C 24.925781 21.394531 24.847656 21.453125 24.777344 21.503906 C 24.765625 21.511719 24.753906 21.523438 24.742188 21.527344 L 23.808594 22.1875 L 23.914062 22.1875 C 23.917969 22.1875 23.925781 22.191406 23.929688 22.191406 C 23.933594 22.191406 23.941406 22.1875 23.945312 22.1875 Z M 26.109375 23.546875 L 27.289062 23.546875 L 26.980469 23.136719 C 26.949219 23.097656 26.921875 23.070312 26.894531 23.050781 C 26.867188 23.035156 26.832031 23.027344 26.785156 23.027344 L 26.113281 23.027344 Z M 24.628906 24.628906 L 25.367188 24.628906 C 25.382812 24.628906 25.398438 24.644531 25.398438 24.660156 L 25.398438 25.847656 L 25.625 25.847656 L 25.617188 23.613281 L 24.398438 23.613281 L 24.40625 25.847656 L 24.597656 25.847656 L 24.597656 24.660156 C 24.597656 24.644531 24.613281 24.628906 24.628906 24.628906 Z M 25.335938 24.691406 L 24.664062 24.691406 L 24.664062 25.847656 L 25.335938 25.847656 Z M 25.679688 23.613281 L 25.6875 25.863281 L 26.980469 25.863281 C 27.066406 25.863281 27.109375 25.84375 27.132812 25.8125 C 27.160156 25.773438 27.164062 25.707031 27.164062 25.617188 L 27.164062 23.613281 Z M 24.339844 25.863281 L 24.332031 23.613281 L 22.878906 23.613281 L 22.878906 25.617188 C 22.878906 25.707031 22.882812 25.773438 22.910156 25.8125 C 22.933594 25.84375 22.976562 25.863281 23.0625 25.863281 Z M 24.339844 25.863281 "/>
</g>
</g>
</svg>
