<svg xmlns="http://www.w3.org/2000/svg" version="1.1" xmlns:xlink="http://www.w3.org/1999/xlink" xmlns:svgjs="http://svgjs.dev/svgjs" width="1000" height="1000" viewBox="0 0 1000 1000"><rect width="1000" height="1000" fill="#50a060"></rect><g transform="matrix(0.7,0,0,0.7,150.00008034241097,106.25)"><svg viewBox="0 0 320 360" data-background-color="#50a060" preserveAspectRatio="xMidYMid meet" height="1125" width="1000" xmlns="http://www.w3.org/2000/svg" xmlns:xlink="http://www.w3.org/1999/xlink"><g id="tight-bounds" transform="matrix(1,0,0,1,-0.00003672795929787753,0)"><svg viewBox="0 0 320 360" height="360" width="320"><g><svg></svg></g><g><svg viewBox="0 0 320 360" height="360" width="320"><g><path transform="translate(-32.1528,-12.1528) scale(3.84303,3.84303)" d="M88.492 50l1.711-2.963c2.946-5.102 1.198-11.626-3.904-14.572l-2.963-1.711v-3.422c0-5.891-4.776-10.667-10.667-10.667h-3.422l-1.711-2.963c-2.946-5.102-9.47-6.85-14.572-3.904l-2.964 1.71-2.963-1.711c-5.102-2.945-11.626-1.197-14.572 3.905l-1.711 2.963h-3.422c-5.891 0-10.667 4.776-10.667 10.667v3.422l-2.963 1.711c-5.102 2.946-6.85 9.47-3.904 14.572l1.71 2.963-1.711 2.963c-2.945 5.102-1.197 11.626 3.905 14.572l2.963 1.711v3.422c0 5.891 4.776 10.667 10.667 10.667h3.422l1.711 2.963c2.946 5.102 9.47 6.85 14.572 3.904l2.963-1.71 2.963 1.711c5.102 2.946 11.626 1.198 14.572-3.904l1.711-2.963h3.422c5.891 0 10.667-4.776 10.667-10.667v-3.422l2.963-1.711c5.102-2.946 6.85-9.47 3.904-14.572zM85.832 33.273c2.252 1.3 3.862 3.399 4.535 5.91 0.673 2.511 0.328 5.135-0.972 7.386l-1.441 2.497-4.618-7.999v-9.236zM73.72 73.72l-15.038 8.682h-17.364l-15.038-8.682-8.682-15.038v-17.364l8.682-15.038 15.038-8.682h17.364l15.038 8.682 8.682 15.038v17.364zM82.401 60.549v8.158l-7.065 4.079zM72.786 75.336l-4.079 7.065h-8.158zM57.065 83.335l-7.065 4.079-7.065-4.079zM39.451 82.401h-8.158l-4.079-7.065zM24.664 72.786l-7.065-4.079v-8.158zM16.665 57.065l-4.079-7.065 4.079-7.065zM17.599 39.451v-8.158l7.065-4.079zM27.214 24.664l4.079-7.065h8.158zM42.935 16.665l7.065-4.079 7.065 4.079zM60.549 17.599h8.158l4.079 7.065zM75.336 27.214l7.065 4.079v8.158zM83.335 42.935l4.079 7.065-4.079 7.065zM72.668 17.599c2.6 0 5.044 1.012 6.883 2.851 1.838 1.838 2.851 4.283 2.851 6.883v2.883l-7.999-4.618-4.618-7.999zM53.43 10.606c2.252-1.3 4.875-1.645 7.386-0.972 2.511 0.673 4.61 2.284 5.91 4.535l1.441 2.497h-9.236l-7.999-4.618zM33.273 14.168c1.3-2.252 3.399-3.862 5.91-4.535 2.511-0.673 5.135-0.328 7.386 0.972l2.497 1.441-7.999 4.618h-9.236zM17.599 27.332c0-2.6 1.012-5.044 2.851-6.883 1.838-1.838 4.283-2.851 6.883-2.851h2.883l-4.618 7.999-7.999 4.618zM10.606 46.57c-1.3-2.252-1.645-4.875-0.972-7.386 0.673-2.511 2.284-4.61 4.535-5.91l2.497-1.441v9.236l-4.618 7.999zM14.168 66.727c-2.252-1.3-3.862-3.399-4.535-5.91-0.673-2.511-0.328-5.135 0.972-7.386l1.441-2.497 4.618 7.999v9.236zM27.332 82.401c-2.6 0-5.044-1.012-6.883-2.851-1.838-1.838-2.851-4.283-2.851-6.883v-2.883l7.999 4.618 4.618 7.999zM46.57 89.394c-2.252 1.3-4.875 1.645-7.386 0.972-2.511-0.673-4.61-2.284-5.91-4.535l-1.441-2.497h9.236l7.999 4.618zM66.727 85.832c-1.3 2.252-3.399 3.862-5.91 4.535-2.511 0.673-5.135 0.328-7.386-0.972l-2.497-1.441 7.999-4.618h9.236zM82.401 72.668c0 2.6-1.012 5.044-2.851 6.883-1.838 1.838-4.283 2.851-6.883 2.851h-2.883l4.618-7.999 7.999-4.618zM90.367 60.816c-0.673 2.511-2.284 4.61-4.535 5.91l-2.497 1.441v-9.236l4.618-7.999 1.441 2.497c1.3 2.253 1.646 4.876 0.973 7.387z" fill="#ffffff" fill-rule="nonzero" stroke="none" stroke-width="1" stroke-linecap="butt" stroke-linejoin="miter" stroke-miterlimit="10" stroke-dasharray="" stroke-dashoffset="0" font-family="none" font-weight="none" font-size="none" text-anchor="none" style="mix-blend-mode: normal" data-fill-palette-color="tertiary"></path></g><g transform="matrix(1,0,0,1,64,146.48726184094596)"><svg viewBox="0 0 192 67.02547631810805" height="67.02547631810805" width="192"><g><svg viewBox="0 0 192 67.02547631810805" height="67.02547631810805" width="192"><g><svg viewBox="0 0 192 67.02547631810805" height="67.02547631810805" width="192"><g transform="matrix(1,0,0,1,0,46.770433424530495)"><svg viewBox="0 0 192 20.255042893577553" height="20.255042893577553" width="192"><g id="textblocktransform"><svg viewBox="0 0 192 20.255042893577553" height="20.255042893577553" width="192" id="textblock"><g><svg viewBox="0 0 192 20.255042893577553" height="20.255042893577553" width="192"><g transform="matrix(1,0,0,1,0,0)"><svg width="192" viewBox="-0.1 -35.4 431.26000000000005 45.5" height="20.255042893577553" data-palette-color="#ffffff"><path d="M10.85-17.4L10.85-17.4 9.7-13.4 18.05-13.4 16.9-17.4Q16.1-20 15.38-22.75 14.65-25.5 13.95-28.2L13.95-28.2 13.75-28.2Q13.05-25.45 12.35-22.73 11.65-20 10.85-17.4ZM5.8 0L-0.1 0 10.55-32.7 17.35-32.7 28 0 21.9 0 19.35-8.85 8.35-8.85 5.8 0ZM43.45 0.6L43.45 0.6Q41.75 0.6 40.02-0.23 38.3-1.05 36.75-2.6L36.75-2.6 36.6-2.6 36.1 0 31.55 0 31.55-35.3 37.3-35.3 37.3-26.2 37.15-22.1Q38.7-23.45 40.52-24.3 42.35-25.15 44.25-25.15L44.25-25.15Q46.55-25.15 48.35-24.28 50.15-23.4 51.4-21.78 52.65-20.15 53.3-17.85 53.95-15.55 53.95-12.7L53.95-12.7Q53.95-9.55 53.07-7.08 52.2-4.6 50.75-2.9 49.3-1.2 47.4-0.3 45.5 0.6 43.45 0.6ZM42.25-4.15L42.25-4.15Q44.7-4.15 46.35-6.28 48-8.4 48-12.6L48-12.6Q48-16.3 46.75-18.35 45.5-20.4 42.7-20.4L42.7-20.4Q40.1-20.4 37.3-17.65L37.3-17.65 37.3-6.2Q38.6-5.05 39.87-4.6 41.15-4.15 42.25-4.15ZM65.05 0.6L65.05 0.6Q61.8 0.6 59.8-1.38 57.8-3.35 57.8-6.6L57.8-6.6Q57.8-8.55 58.62-10.08 59.45-11.6 61.22-12.7 63-13.8 65.72-14.55 68.44-15.3 72.25-15.7L72.25-15.7Q72.19-16.65 71.97-17.53 71.75-18.4 71.22-19.07 70.69-19.75 69.84-20.13 69-20.5 67.75-20.5L67.75-20.5Q65.94-20.5 64.22-19.8 62.5-19.1 60.84-18.1L60.84-18.1 58.74-21.95Q60.8-23.25 63.34-24.2 65.89-25.15 68.84-25.15L68.84-25.15Q73.44-25.15 75.72-22.43 78-19.7 78-14.55L78-14.55 78 0 73.25 0 72.84-2.7 72.64-2.7Q71-1.3 69.12-0.35 67.25 0.6 65.05 0.6ZM66.89-3.9L66.89-3.9Q68.39-3.9 69.62-4.6 70.84-5.3 72.25-6.6L72.25-6.6 72.25-12.1Q69.75-11.8 68.05-11.3 66.34-10.8 65.3-10.18 64.25-9.55 63.8-8.75 63.34-7.95 63.34-7.05L63.34-7.05Q63.34-5.4 64.34-4.65 65.34-3.9 66.89-3.9ZM91.74 0.6L91.74 0.6Q89.19 0.6 86.72-0.38 84.24-1.35 82.44-2.8L82.44-2.8 85.14-6.5Q86.79-5.2 88.42-4.48 90.04-3.75 91.94-3.75L91.94-3.75Q93.94-3.75 94.89-4.58 95.84-5.4 95.84-6.7L95.84-6.7Q95.84-7.45 95.39-8.03 94.94-8.6 94.19-9.05 93.44-9.5 92.49-9.88 91.54-10.25 90.59-10.65L90.59-10.65Q89.39-11.1 88.14-11.7 86.89-12.3 85.92-13.15 84.94-14 84.32-15.13 83.69-16.25 83.69-17.8L83.69-17.8Q83.69-21.05 86.09-23.1 88.49-25.15 92.64-25.15L92.64-25.15Q95.19-25.15 97.24-24.25 99.29-23.35 100.79-22.2L100.79-22.2 98.14-18.7Q96.84-19.65 95.52-20.23 94.19-20.8 92.74-20.8L92.74-20.8Q90.89-20.8 90.02-20.03 89.14-19.25 89.14-18.1L89.14-18.1Q89.14-17.35 89.57-16.82 89.99-16.3 90.69-15.9 91.39-15.5 92.32-15.15 93.24-14.8 94.24-14.45L94.24-14.45Q95.49-14 96.74-13.43 97.99-12.85 99.02-12 100.04-11.15 100.67-9.93 101.29-8.7 101.29-7L101.29-7Q101.29-5.4 100.67-4.03 100.04-2.65 98.84-1.63 97.64-0.6 95.84 0 94.04 0.6 91.74 0.6ZM112.39 0.6L112.39 0.6Q109.14 0.6 107.14-1.38 105.14-3.35 105.14-6.6L105.14-6.6Q105.14-8.55 105.97-10.08 106.79-11.6 108.57-12.7 110.34-13.8 113.07-14.55 115.79-15.3 119.59-15.7L119.59-15.7Q119.54-16.65 119.32-17.53 119.09-18.4 118.57-19.07 118.04-19.75 117.19-20.13 116.34-20.5 115.09-20.5L115.09-20.5Q113.29-20.5 111.57-19.8 109.84-19.1 108.19-18.1L108.19-18.1 106.09-21.95Q108.14-23.25 110.69-24.2 113.24-25.15 116.19-25.15L116.19-25.15Q120.79-25.15 123.07-22.43 125.34-19.7 125.34-14.55L125.34-14.55 125.34 0 120.59 0 120.19-2.7 119.99-2.7Q118.34-1.3 116.47-0.35 114.59 0.6 112.39 0.6ZM114.24-3.9L114.24-3.9Q115.74-3.9 116.97-4.6 118.19-5.3 119.59-6.6L119.59-6.6 119.59-12.1Q117.09-11.8 115.39-11.3 113.69-10.8 112.64-10.18 111.59-9.55 111.14-8.75 110.69-7.95 110.69-7.05L110.69-7.05Q110.69-5.4 111.69-4.65 112.69-3.9 114.24-3.9ZM137.99 0L132.24 0 132.24-24.55 136.99-24.55 137.39-21.25 137.59-21.25Q139.24-22.85 141.16-24 143.09-25.15 145.64-25.15L145.64-25.15Q149.59-25.15 151.39-22.63 153.19-20.1 153.19-15.4L153.19-15.4 153.19 0 147.44 0 147.44-14.65Q147.44-17.7 146.54-18.95 145.64-20.2 143.59-20.2L143.59-20.2Q141.99-20.2 140.76-19.43 139.54-18.65 137.99-17.15L137.99-17.15 137.99 0ZM175.98 0L170.73 0 170.73-32.7 177.28-32.7 183.08-16.7Q183.63-15.15 184.13-13.53 184.63-11.9 185.18-10.3L185.18-10.3 185.38-10.3Q185.93-11.9 186.41-13.53 186.88-15.15 187.43-16.7L187.43-16.7 193.08-32.7 199.68-32.7 199.68 0 194.33 0 194.33-14.95Q194.33-16.1 194.41-17.45 194.48-18.8 194.58-20.18 194.68-21.55 194.83-22.88 194.98-24.2 195.08-25.35L195.08-25.35 194.88-25.35 192.23-17.75 186.88-3.05 183.43-3.05 178.03-17.75 175.43-25.35 175.23-25.35Q175.33-24.2 175.46-22.88 175.58-21.55 175.71-20.18 175.83-18.8 175.91-17.45 175.98-16.1 175.98-14.95L175.98-14.95 175.98 0ZM214.78 0.6L214.78 0.6Q210.83 0.6 209.03-1.93 207.23-4.45 207.23-9.15L207.23-9.15 207.23-24.55 212.98-24.55 212.98-9.9Q212.98-6.85 213.88-5.6 214.78-4.35 216.78-4.35L216.78-4.35Q218.38-4.35 219.61-5.15 220.83-5.95 222.23-7.75L222.23-7.75 222.23-24.55 227.98-24.55 227.98 0 223.28 0 222.83-3.6 222.68-3.6Q221.08-1.7 219.21-0.55 217.33 0.6 214.78 0.6ZM241.03 0L235.28 0 235.28-24.55 240.03-24.55 240.43-21.25 240.63-21.25Q242.28-22.85 244.2-24 246.13-25.15 248.68-25.15L248.68-25.15Q252.63-25.15 254.43-22.63 256.23-20.1 256.23-15.4L256.23-15.4 256.23 0 250.48 0 250.48-14.65Q250.48-17.7 249.58-18.95 248.68-20.2 246.63-20.2L246.63-20.2Q245.03-20.2 243.8-19.43 242.58-18.65 241.03-17.15L241.03-17.15 241.03 0ZM269.03 0L263.28 0 263.28-24.55 269.03-24.55 269.03 0ZM266.18-28.85L266.18-28.85Q264.63-28.85 263.63-29.75 262.63-30.65 262.63-32.1L262.63-32.1Q262.63-33.55 263.63-34.48 264.63-35.4 266.18-35.4L266.18-35.4Q267.73-35.4 268.73-34.48 269.73-33.55 269.73-32.1L269.73-32.1Q269.73-30.65 268.73-29.75 267.73-28.85 266.18-28.85ZM286.62 0.6L286.62 0.6Q284.12 0.6 281.95-0.25 279.77-1.1 278.17-2.75 276.57-4.4 275.67-6.8 274.77-9.2 274.77-12.25L274.77-12.25Q274.77-15.3 275.77-17.7 276.77-20.1 278.47-21.75 280.17-23.4 282.4-24.28 284.62-25.15 287.07-25.15L287.07-25.15Q289.47-25.15 291.2-24.35 292.92-23.55 294.27-22.4L294.27-22.4 291.47-18.65Q290.47-19.5 289.5-19.98 288.52-20.45 287.37-20.45L287.37-20.45Q284.37-20.45 282.52-18.23 280.67-16 280.67-12.25L280.67-12.25Q280.67-8.55 282.5-6.33 284.32-4.1 287.22-4.1L287.22-4.1Q288.67-4.1 289.95-4.73 291.22-5.35 292.27-6.2L292.27-6.2 294.62-2.4Q292.87-0.9 290.8-0.15 288.72 0.6 286.62 0.6ZM305.22 0L299.47 0 299.47-24.55 305.22-24.55 305.22 0ZM302.37-28.85L302.37-28.85Q300.82-28.85 299.82-29.75 298.82-30.65 298.82-32.1L298.82-32.1Q298.82-33.55 299.82-34.48 300.82-35.4 302.37-35.4L302.37-35.4Q303.92-35.4 304.92-34.48 305.92-33.55 305.92-32.1L305.92-32.1Q305.92-30.65 304.92-29.75 303.92-28.85 302.37-28.85ZM318.32 9.7L312.57 9.7 312.57-24.55 317.32-24.55 317.72-21.95 317.92-21.95Q319.47-23.25 321.37-24.2 323.27-25.15 325.32-25.15L325.32-25.15Q327.62-25.15 329.39-24.28 331.17-23.4 332.42-21.75 333.67-20.1 334.32-17.8 334.97-15.5 334.97-12.65L334.97-12.65Q334.97-9.5 334.09-7.03 333.22-4.55 331.77-2.88 330.32-1.2 328.42-0.3 326.52 0.6 324.47 0.6L324.47 0.6Q322.87 0.6 321.27-0.1 319.67-0.8 318.17-2.1L318.17-2.1 318.32 2 318.32 9.7ZM323.27-4.15L323.27-4.15Q325.72-4.15 327.37-6.28 329.02-8.4 329.02-12.6L329.02-12.6Q329.02-16.3 327.77-18.35 326.52-20.4 323.72-20.4L323.72-20.4Q321.12-20.4 318.32-17.65L318.32-17.65 318.32-6.2Q319.67-5.05 320.92-4.6 322.17-4.15 323.27-4.15ZM346.12 0.6L346.12 0.6Q342.87 0.6 340.87-1.38 338.87-3.35 338.87-6.6L338.87-6.6Q338.87-8.55 339.69-10.08 340.52-11.6 342.29-12.7 344.07-13.8 346.79-14.55 349.52-15.3 353.32-15.7L353.32-15.7Q353.27-16.65 353.04-17.53 352.82-18.4 352.29-19.07 351.77-19.75 350.92-20.13 350.07-20.5 348.82-20.5L348.82-20.5Q347.02-20.5 345.29-19.8 343.57-19.1 341.92-18.1L341.92-18.1 339.82-21.95Q341.87-23.25 344.42-24.2 346.97-25.15 349.92-25.15L349.92-25.15Q354.52-25.15 356.79-22.43 359.07-19.7 359.07-14.55L359.07-14.55 359.07 0 354.32 0 353.92-2.7 353.72-2.7Q352.07-1.3 350.19-0.35 348.32 0.6 346.12 0.6ZM347.97-3.9L347.97-3.9Q349.47-3.9 350.69-4.6 351.92-5.3 353.32-6.6L353.32-6.6 353.32-12.1Q350.82-11.8 349.12-11.3 347.42-10.8 346.37-10.18 345.32-9.55 344.87-8.75 344.42-7.95 344.42-7.05L344.42-7.05Q344.42-5.4 345.42-4.65 346.42-3.9 347.97-3.9ZM371.56 0.6L371.56 0.6Q368.46 0.6 367.21-1.25 365.96-3.1 365.96-6.3L365.96-6.3 365.96-35.3 371.71-35.3 371.71-6Q371.71-4.95 372.11-4.53 372.51-4.1 372.96-4.1L372.96-4.1Q373.16-4.1 373.34-4.1 373.51-4.1 373.86-4.2L373.86-4.2 374.61 0.1Q373.46 0.6 371.56 0.6ZM385.26 0L379.51 0 379.51-24.55 385.26-24.55 385.26 0ZM382.41-28.85L382.41-28.85Q380.86-28.85 379.86-29.75 378.86-30.65 378.86-32.1L378.86-32.1Q378.86-33.55 379.86-34.48 380.86-35.4 382.41-35.4L382.41-35.4Q383.96-35.4 384.96-34.48 385.96-33.55 385.96-32.1L385.96-32.1Q385.96-30.65 384.96-29.75 383.96-28.85 382.41-28.85ZM401.26 0.6L401.26 0.6Q399.11 0.6 397.63-0.05 396.16-0.7 395.23-1.88 394.31-3.05 393.88-4.67 393.46-6.3 393.46-8.3L393.46-8.3 393.46-20 389.96-20 389.96-24.3 393.76-24.55 394.46-31.25 399.26-31.25 399.26-24.55 405.51-24.55 405.51-20 399.26-20 399.26-8.3Q399.26-4 402.71-4L402.71-4Q403.36-4 404.03-4.15 404.71-4.3 405.26-4.55L405.26-4.55 406.26-0.3Q405.26 0.05 403.98 0.33 402.71 0.6 401.26 0.6ZM412.31 10.1L412.31 10.1Q411.31 10.1 410.56 9.98 409.81 9.85 409.11 9.6L409.11 9.6 410.16 5.1Q410.51 5.2 410.98 5.33 411.46 5.45 411.91 5.45L411.91 5.45Q413.86 5.45 415.03 4.28 416.21 3.1 416.81 1.25L416.81 1.25 417.26-0.3 407.61-24.55 413.46-24.55 417.71-12.5Q418.26-10.9 418.78-9.13 419.31-7.35 419.86-5.6L419.86-5.6 420.06-5.6Q420.51-7.3 420.98-9.08 421.46-10.85 421.91-12.5L421.91-12.5 425.61-24.55 431.16-24.55 422.26 1.1Q421.51 3.2 420.61 4.85 419.71 6.5 418.53 7.68 417.36 8.85 415.83 9.47 414.31 10.1 412.31 10.1Z" opacity="1" transform="matrix(1,0,0,1,0,0)" fill="#ffffff" class="wordmark-text-0" data-fill-palette-color="primary" id="text-0"></path></svg></g></svg></g></svg></g></svg></g><g transform="matrix(1,0,0,1,74.17121947716714,0)"><svg viewBox="0 0 43.65756104566572 41.98870391838628" height="41.98870391838628" width="43.65756104566572"><g><svg xmlns="http://www.w3.org/2000/svg" xmlns:xlink="http://www.w3.org/1999/xlink" xml:space="preserve" version="1.1" style="shape-rendering:geometricPrecision;text-rendering:geometricPrecision;image-rendering:optimizeQuality;" viewBox="509 1634.6884796281142 58983 56728.311520371884" x="0" y="0" fill-rule="evenodd" clip-rule="evenodd" height="41.98870391838628" width="43.65756104566572" class="icon-icon-0" data-fill-palette-color="accent" id="icon-0"><g fill="#ffffff" data-fill-palette-color="accent"><path class="" d="M30260 28988l7755 0 4871 0 122-16001-25639 0-122 16001 4916 0 8097 0z m-27255 800l-2096 0c-221 0-400-179-400-400 0-99 36-189 95-259l4315-5698c436-576 810-984 1275-1259 476-282 1018-408 1772-408l8520 0c7 0 13 0 20 0l67-8779c-3 0-6 0-9 0l-2540 0 0-1c-125 0-249-59-327-170-127-180-83-429 97-556l12576-8870c144-101 283-204 427-309 937-686 2022-1481 3216-1443 1195-37 2279 757 3216 1443 143 105 283 207 427 309l12556 8856c114 70 190 197 190 341 0 221-179 400-400 400l-2198 0-67 8778 8298 0c754 0 1295 126 1772 408 465 275 839 683 1275 1259l4315 5698c59 70 95 160 95 259 0 221-179 400-400 400l-1576 0 0 24762c0 1258-76 2172-494 2814-443 681-1203 1000-2543 1000l-48438 0c-1339 0-2099-318-2543-1000-418-642-494-1556-494-2814l0-24762z m13494-7223c-5 0-9 0-14 0l-8520 0c-604 0-1020 91-1365 295-356 211-668 556-1044 1053l-3843 5076 1692 0 857 0 12188 0 49-6423z m42 22345l0 6038 1895-17 22-6038-1917 17z m-500 6042l0-6038-1895 17-22 6038 1917-17z m2795 772l-5111 45c-220 0-398-178-398-398l25-6835c0-219 176-397 395-398l5111-45c220 0 398 178 398 398l-25 6835c0 219-176 397-395 398z m-9597-6887l0 6088 1842 0 22-6088-1864 0z m-500 6088l0-6088-1895 0-22 6088 1917 0z m2739 800l-5055 0 0-2c-220 0-398-178-398-398l25-6854c-1-11-1-22-1-34 0-221 179-400 400-400l5055 0 0 2c220 0 398 178 398 398l-25 6854c1 11 1 22 1 34 0 221-179 400-400 400z m5064-16977l0 6088 1895 0 22-6088-1917 0z m-500 6088l0-6088-1895 0-22 6088 1917 0z m2792 800l-5108 0 0-2c-220 0-398-178-398-398l25-6854c-1-11-1-22-1-34 0-221 179-400 400-400l5108 0 0 2c220 0 398 178 398 398l-25 6854c1 11 1 22 1 34 0 221-179 400-400 400z m-9594-6888l0 6088 1895 0 22-6088-1917 0z m-500 6088l0-6088-1895 0-22 6088 1917 0z m2792 800l-5108 0 0-2c-220 0-398-178-398-398l25-6854c-1-11-1-22-1-34 0-221 179-400 400-400l5108 0 0 2c220 0 398 178 398 398l-25 6854c1 11 1 22 1 34 0 221-179 400-400 400z m26271-23716l0 6088 1895 0 22-6088-1917 0z m-500 6088l0-6088-1895 0-22 6088 1917 0z m2792 800l-5108 0 0-2c-220 0-398-178-398-398l25-6854c-1-11-1-22-1-34 0-221 179-400 400-400l5108 0 0 2c220 0 398 178 398 398l-25 6854c1 11 1 22 1 34 0 221-179 400-400 400z m-9700-6888l0 6088 1895 0 22-6088-1917 0z m-500 6088l0-6088-1895 0-22 6088 1917 0z m2792 800l-5108 0 0-2c-220 0-398-178-398-398l25-6854c-1-11-1-22-1-34 0-221 179-400 400-400l5108 0 0 2c220 0 398 178 398 398l-25 6854c1 11 1 22 1 34 0 221-179 400-400 400z m-9594-6888l0 6088 1895 0 22-6088-1917 0z m-500 6088l0-6088-1895 0-22 6088 1917 0z m2792 800l-5108 0 0-2c-220 0-398-178-398-398l25-6854c-1-11-1-22-1-34 0-221 179-400 400-400l5108 0 0 2c220 0 398 178 398 398l-25 6854c1 11 1 22 1 34 0 221-179 400-400 400z m26244 20100l0 6038 1895-17 22-6038-1917 17z m-500 6042l0-6038-1895 17-22 6038 1917-17z m2795 772l-5111 45c-220 0-398-178-398-398l25-6835c0-219 176-397 395-398l5111-45c220 0 398 178 398 398l-25 6835c0 219-176 397-395 398z m-9597-6887l0 6088 1842 0 22-6088-1864 0z m-500 6088l0-6088-1895 0-22 6088 1917 0z m2739 800l-5055 0 0-2c-220 0-398-178-398-398l25-6854c-1-11-1-22-1-34 0-221 179-400 400-400l5055 0 0 2c220 0 398 178 398 398l-25 6854c1 11 1 22 1 34 0 221-179 400-400 400z m5064-16977l0 6088 1895 0 22-6088-1917 0z m-500 6088l0-6088-1895 0-22 6088 1917 0z m2792 800l-5108 0 0-2c-220 0-398-178-398-398l25-6854c-1-11-1-22-1-34 0-221 179-400 400-400l5108 0 0 2c220 0 398 178 398 398l-25 6854c1 11 1 22 1 34 0 221-179 400-400 400z m-9594-6888l0 6088 1895 0 22-6088-1917 0z m-500 6088l0-6088-1895 0-22 6088 1917 0z m2792 800l-5108 0 0-2c-220 0-398-178-398-398l25-6854c-1-11-1-22-1-34 0-221 179-400 400-400l5108 0 0 2c220 0 398 178 398 398l-25 6854c1 11 1 22 1 34 0 221-179 400-400 400z m-3191-29448c13-1 25-2 38-2l1280 0-11546-8144c-136-96-286-206-439-318-838-613-1807-1324-2730-1290-9 0-19 0-28 0-923-34-1893 676-2730 1290-153 112-303 222-439 318l-11546 8144 1280 0c75 0 145 21 205 57 60-36 130-57 205-57l26436 0 0 2 2 0c4 0 9 0 13 0z m259 16799l12056 0 1376 0 1173 0-3843-5076c-376-497-687-842-1044-1053-345-204-762-295-1365-295l-8304 0-49 6423z m-18255 13336l9096 0c221 0 400 179 400 400l0 14654 2769 0-75-27590-15055 0 75 27590 2390 0 0-14654c0-221 179-400 400-400z m8696 800l-8296 0 0 14254 8296 0 0-14254z m4291-13336l75 27775 15989 0c1035 0 1593-202 1874-634 307-471 362-1264 362-2379l0-24762-976 0-17325 0z m-16573 27775l-75-27775-17504 0-457 0 0 24762c0 1115 56 1908 362 2379 281 432 840 634 1874 634l15800 0z" fill="#ffffff" fill-rule="nonzero" data-fill-palette-color="accent"></path></g></svg></g></svg></g><g></g></svg></g></svg></g></svg></g></svg></g><defs></defs></svg><rect width="320" height="360" fill="none" stroke="none" visibility="hidden"></rect></g></svg></g></svg>