<svg xmlns="http://www.w3.org/2000/svg" version="1.1" xmlns:xlink="http://www.w3.org/1999/xlink" xmlns:svgjs="http://svgjs.dev/svgjs" width="1000" height="1000" viewBox="0 0 1000 1000"><rect width="1000" height="1000" fill="#50a060"></rect><g transform="matrix(0.7,0,0,0.7,149.57575757575756,378.26397255089745)"><svg viewBox="0 0 396 138" data-background-color="#50a060" preserveAspectRatio="xMidYMid meet" height="348" width="1000" xmlns="http://www.w3.org/2000/svg" xmlns:xlink="http://www.w3.org/1999/xlink"><g id="tight-bounds" transform="matrix(1,0,0,1,0.2400000000000091,-0.03624060765127979)"><svg viewBox="0 0 395.52 138.07248121530256" height="138.07248121530256" width="395.52"><g><svg viewBox="0 0 395.52 138.07248121530256" height="138.07248121530256" width="395.52"><g transform="matrix(1,0,0,1,0,96.3470928545328)"><svg viewBox="0 0 395.52 41.725388360769756" height="41.725388360769756" width="395.52"><g id="textblocktransform"><svg viewBox="0 0 395.52 41.725388360769756" height="41.725388360769756" width="395.52" id="textblock"><g><svg viewBox="0 0 395.52 41.725388360769756" height="41.725388360769756" width="395.52"><g transform="matrix(1,0,0,1,0,0)"><svg width="395.52" viewBox="-0.1 -35.4 429.06000000000006 45.5" height="41.725388360769756" data-palette-color="#ffffff"><g class="wordmark-text-0" data-fill-palette-color="primary" id="text-0"><path d="M10.85-17.4L10.85-17.4 9.7-13.4 18.05-13.4 16.9-17.4Q16.1-20 15.38-22.75 14.65-25.5 13.95-28.2L13.95-28.2 13.75-28.2Q13.05-25.45 12.35-22.73 11.65-20 10.85-17.4ZM5.8 0L-0.1 0 10.55-32.7 17.35-32.7 28 0 21.9 0 19.35-8.85 8.35-8.85 5.8 0ZM43.45 0.6L43.45 0.6Q41.75 0.6 40.02-0.23 38.3-1.05 36.75-2.6L36.75-2.6 36.6-2.6 36.1 0 31.55 0 31.55-35.3 37.3-35.3 37.3-26.2 37.15-22.1Q38.7-23.45 40.52-24.3 42.35-25.15 44.25-25.15L44.25-25.15Q46.55-25.15 48.35-24.28 50.15-23.4 51.4-21.78 52.65-20.15 53.3-17.85 53.95-15.55 53.95-12.7L53.95-12.7Q53.95-9.55 53.07-7.08 52.2-4.6 50.75-2.9 49.3-1.2 47.4-0.3 45.5 0.6 43.45 0.6ZM42.25-4.15L42.25-4.15Q44.7-4.15 46.35-6.28 48-8.4 48-12.6L48-12.6Q48-16.3 46.75-18.35 45.5-20.4 42.7-20.4L42.7-20.4Q40.1-20.4 37.3-17.65L37.3-17.65 37.3-6.2Q38.6-5.05 39.87-4.6 41.15-4.15 42.25-4.15ZM65.65 0.6L65.65 0.6Q62.4 0.6 60.4-1.38 58.4-3.35 58.4-6.6L58.4-6.6Q58.4-8.55 59.22-10.08 60.05-11.6 61.82-12.7 63.59-13.8 66.32-14.55 69.05-15.3 72.84-15.7L72.84-15.7Q72.8-16.65 72.57-17.53 72.34-18.4 71.82-19.07 71.3-19.75 70.45-20.13 69.59-20.5 68.34-20.5L68.34-20.5Q66.55-20.5 64.82-19.8 63.09-19.1 61.45-18.1L61.45-18.1 59.34-21.95Q61.4-23.25 63.95-24.2 66.5-25.15 69.45-25.15L69.45-25.15Q74.05-25.15 76.32-22.43 78.59-19.7 78.59-14.55L78.59-14.55 78.59 0 73.84 0 73.45-2.7 73.25-2.7Q71.59-1.3 69.72-0.35 67.84 0.6 65.65 0.6ZM67.5-3.9L67.5-3.9Q69-3.9 70.22-4.6 71.45-5.3 72.84-6.6L72.84-6.6 72.84-12.1Q70.34-11.8 68.65-11.3 66.95-10.8 65.9-10.18 64.84-9.55 64.39-8.75 63.95-7.95 63.95-7.05L63.95-7.05Q63.95-5.4 64.95-4.65 65.95-3.9 67.5-3.9ZM92.34 0.6L92.34 0.6Q89.79 0.6 87.32-0.38 84.84-1.35 83.04-2.8L83.04-2.8 85.74-6.5Q87.39-5.2 89.02-4.48 90.64-3.75 92.54-3.75L92.54-3.75Q94.54-3.75 95.49-4.58 96.44-5.4 96.44-6.7L96.44-6.7Q96.44-7.45 95.99-8.03 95.54-8.6 94.79-9.05 94.04-9.5 93.09-9.88 92.14-10.25 91.19-10.65L91.19-10.65Q89.99-11.1 88.74-11.7 87.49-12.3 86.52-13.15 85.54-14 84.92-15.13 84.29-16.25 84.29-17.8L84.29-17.8Q84.29-21.05 86.69-23.1 89.09-25.15 93.24-25.15L93.24-25.15Q95.79-25.15 97.84-24.25 99.89-23.35 101.39-22.2L101.39-22.2 98.74-18.7Q97.44-19.65 96.12-20.23 94.79-20.8 93.34-20.8L93.34-20.8Q91.49-20.8 90.62-20.03 89.74-19.25 89.74-18.1L89.74-18.1Q89.74-17.35 90.17-16.82 90.59-16.3 91.29-15.9 91.99-15.5 92.92-15.15 93.84-14.8 94.84-14.45L94.84-14.45Q96.09-14 97.34-13.43 98.59-12.85 99.62-12 100.64-11.15 101.27-9.93 101.89-8.7 101.89-7L101.89-7Q101.89-5.4 101.27-4.03 100.64-2.65 99.44-1.63 98.24-0.6 96.44 0 94.64 0.6 92.34 0.6ZM112.99 0.6L112.99 0.6Q109.74 0.6 107.74-1.38 105.74-3.35 105.74-6.6L105.74-6.6Q105.74-8.55 106.56-10.08 107.39-11.6 109.17-12.7 110.94-13.8 113.67-14.55 116.39-15.3 120.19-15.7L120.19-15.7Q120.14-16.65 119.92-17.53 119.69-18.4 119.17-19.07 118.64-19.75 117.79-20.13 116.94-20.5 115.69-20.5L115.69-20.5Q113.89-20.5 112.17-19.8 110.44-19.1 108.79-18.1L108.79-18.1 106.69-21.95Q108.74-23.25 111.29-24.2 113.84-25.15 116.79-25.15L116.79-25.15Q121.39-25.15 123.67-22.43 125.94-19.7 125.94-14.55L125.94-14.55 125.94 0 121.19 0 120.79-2.7 120.59-2.7Q118.94-1.3 117.06-0.35 115.19 0.6 112.99 0.6ZM114.84-3.9L114.84-3.9Q116.34-3.9 117.56-4.6 118.79-5.3 120.19-6.6L120.19-6.6 120.19-12.1Q117.69-11.8 115.99-11.3 114.29-10.8 113.24-10.18 112.19-9.55 111.74-8.75 111.29-7.95 111.29-7.05L111.29-7.05Q111.29-5.4 112.29-4.65 113.29-3.9 114.84-3.9ZM138.59 0L132.84 0 132.84-24.55 137.59-24.55 137.99-21.25 138.19-21.25Q139.84-22.85 141.76-24 143.69-25.15 146.24-25.15L146.24-25.15Q150.19-25.15 151.99-22.63 153.79-20.1 153.79-15.4L153.79-15.4 153.79 0 148.04 0 148.04-14.65Q148.04-17.7 147.14-18.95 146.24-20.2 144.19-20.2L144.19-20.2Q142.59-20.2 141.36-19.43 140.14-18.65 138.59-17.15L138.59-17.15 138.59 0Z" fill="#ffffff" data-fill-palette-color="primary"></path><path d="M173.19 0L167.94 0 167.94-32.7 174.49-32.7 180.29-16.7Q180.84-15.15 181.34-13.53 181.84-11.9 182.39-10.3L182.39-10.3 182.59-10.3Q183.14-11.9 183.61-13.53 184.09-15.15 184.64-16.7L184.64-16.7 190.29-32.7 196.89-32.7 196.89 0 191.54 0 191.54-14.95Q191.54-16.1 191.61-17.45 191.69-18.8 191.79-20.18 191.89-21.55 192.04-22.88 192.19-24.2 192.29-25.35L192.29-25.35 192.09-25.35 189.44-17.75 184.09-3.05 180.64-3.05 175.24-17.75 172.64-25.35 172.44-25.35Q172.54-24.2 172.66-22.88 172.79-21.55 172.91-20.18 173.04-18.8 173.11-17.45 173.19-16.1 173.19-14.95L173.19-14.95 173.19 0ZM211.99 0.6L211.99 0.6Q208.04 0.6 206.24-1.93 204.44-4.45 204.44-9.15L204.44-9.15 204.44-24.55 210.19-24.55 210.19-9.9Q210.19-6.85 211.09-5.6 211.99-4.35 213.99-4.35L213.99-4.35Q215.59-4.35 216.81-5.15 218.04-5.95 219.44-7.75L219.44-7.75 219.44-24.55 225.19-24.55 225.19 0 220.49 0 220.04-3.6 219.88-3.6Q218.29-1.7 216.41-0.55 214.54 0.6 211.99 0.6ZM238.23 0L232.48 0 232.48-24.55 237.23-24.55 237.63-21.25 237.83-21.25Q239.48-22.85 241.41-24 243.33-25.15 245.88-25.15L245.88-25.15Q249.83-25.15 251.63-22.63 253.43-20.1 253.43-15.4L253.43-15.4 253.43 0 247.68 0 247.68-14.65Q247.68-17.7 246.78-18.95 245.88-20.2 243.83-20.2L243.83-20.2Q242.23-20.2 241.01-19.43 239.78-18.65 238.23-17.15L238.23-17.15 238.23 0ZM266.23 0L260.48 0 260.48-24.55 266.23-24.55 266.23 0ZM263.38-28.85L263.38-28.85Q261.83-28.85 260.83-29.75 259.83-30.65 259.83-32.1L259.83-32.1Q259.83-33.55 260.83-34.48 261.83-35.4 263.38-35.4L263.38-35.4Q264.93-35.4 265.93-34.48 266.93-33.55 266.93-32.1L266.93-32.1Q266.93-30.65 265.93-29.75 264.93-28.85 263.38-28.85ZM283.83 0.6L283.83 0.6Q281.33 0.6 279.15-0.25 276.98-1.1 275.38-2.75 273.78-4.4 272.88-6.8 271.98-9.2 271.98-12.25L271.98-12.25Q271.98-15.3 272.98-17.7 273.98-20.1 275.68-21.75 277.38-23.4 279.6-24.28 281.83-25.15 284.28-25.15L284.28-25.15Q286.68-25.15 288.4-24.35 290.13-23.55 291.48-22.4L291.48-22.4 288.68-18.65Q287.68-19.5 286.7-19.98 285.73-20.45 284.58-20.45L284.58-20.45Q281.58-20.45 279.73-18.23 277.88-16 277.88-12.25L277.88-12.25Q277.88-8.55 279.7-6.33 281.53-4.1 284.43-4.1L284.43-4.1Q285.88-4.1 287.15-4.73 288.43-5.35 289.48-6.2L289.48-6.2 291.83-2.4Q290.08-0.9 288-0.15 285.93 0.6 283.83 0.6ZM302.43 0L296.68 0 296.68-24.55 302.43-24.55 302.43 0ZM299.58-28.85L299.58-28.85Q298.03-28.85 297.03-29.75 296.03-30.65 296.03-32.1L296.03-32.1Q296.03-33.55 297.03-34.48 298.03-35.4 299.58-35.4L299.58-35.4Q301.13-35.4 302.13-34.48 303.13-33.55 303.13-32.1L303.13-32.1Q303.13-30.65 302.13-29.75 301.13-28.85 299.58-28.85ZM315.52 9.7L309.77 9.7 309.77-24.55 314.52-24.55 314.92-21.95 315.12-21.95Q316.67-23.25 318.57-24.2 320.47-25.15 322.52-25.15L322.52-25.15Q324.82-25.15 326.6-24.28 328.37-23.4 329.62-21.75 330.87-20.1 331.52-17.8 332.17-15.5 332.17-12.65L332.17-12.65Q332.17-9.5 331.3-7.03 330.42-4.55 328.97-2.88 327.52-1.2 325.62-0.3 323.72 0.6 321.67 0.6L321.67 0.6Q320.07 0.6 318.47-0.1 316.87-0.8 315.37-2.1L315.37-2.1 315.52 2 315.52 9.7ZM320.47-4.15L320.47-4.15Q322.92-4.15 324.57-6.28 326.22-8.4 326.22-12.6L326.22-12.6Q326.22-16.3 324.97-18.35 323.72-20.4 320.92-20.4L320.92-20.4Q318.32-20.4 315.52-17.65L315.52-17.65 315.52-6.2Q316.87-5.05 318.12-4.6 319.37-4.15 320.47-4.15ZM343.92 0.6L343.92 0.6Q340.67 0.6 338.67-1.38 336.67-3.35 336.67-6.6L336.67-6.6Q336.67-8.55 337.5-10.08 338.32-11.6 340.1-12.7 341.87-13.8 344.6-14.55 347.32-15.3 351.12-15.7L351.12-15.7Q351.07-16.65 350.85-17.53 350.62-18.4 350.1-19.07 349.57-19.75 348.72-20.13 347.87-20.5 346.62-20.5L346.62-20.5Q344.82-20.5 343.1-19.8 341.37-19.1 339.72-18.1L339.72-18.1 337.62-21.95Q339.67-23.25 342.22-24.2 344.77-25.15 347.72-25.15L347.72-25.15Q352.32-25.15 354.6-22.43 356.87-19.7 356.87-14.55L356.87-14.55 356.87 0 352.12 0 351.72-2.7 351.52-2.7Q349.87-1.3 348-0.35 346.12 0.6 343.92 0.6ZM345.77-3.9L345.77-3.9Q347.27-3.9 348.5-4.6 349.72-5.3 351.12-6.6L351.12-6.6 351.12-12.1Q348.62-11.8 346.92-11.3 345.22-10.8 344.17-10.18 343.12-9.55 342.67-8.75 342.22-7.95 342.22-7.05L342.22-7.05Q342.22-5.4 343.22-4.65 344.22-3.9 345.77-3.9ZM369.37 0.6L369.37 0.6Q366.27 0.6 365.02-1.25 363.77-3.1 363.77-6.3L363.77-6.3 363.77-35.3 369.52-35.3 369.52-6Q369.52-4.95 369.92-4.53 370.32-4.1 370.77-4.1L370.77-4.1Q370.97-4.1 371.14-4.1 371.32-4.1 371.67-4.2L371.67-4.2 372.42 0.1Q371.27 0.6 369.37 0.6ZM383.07 0L377.32 0 377.32-24.55 383.07-24.55 383.07 0ZM380.22-28.85L380.22-28.85Q378.67-28.85 377.67-29.75 376.67-30.65 376.67-32.1L376.67-32.1Q376.67-33.55 377.67-34.48 378.67-35.4 380.22-35.4L380.22-35.4Q381.77-35.4 382.77-34.48 383.77-33.55 383.77-32.1L383.77-32.1Q383.77-30.65 382.77-29.75 381.77-28.85 380.22-28.85ZM399.06 0.6L399.06 0.6Q396.91 0.6 395.44-0.05 393.96-0.7 393.04-1.88 392.11-3.05 391.69-4.67 391.26-6.3 391.26-8.3L391.26-8.3 391.26-20 387.76-20 387.76-24.3 391.56-24.55 392.26-31.25 397.06-31.25 397.06-24.55 403.31-24.55 403.31-20 397.06-20 397.06-8.3Q397.06-4 400.51-4L400.51-4Q401.16-4 401.84-4.15 402.51-4.3 403.06-4.55L403.06-4.55 404.06-0.3Q403.06 0.05 401.79 0.33 400.51 0.6 399.06 0.6ZM410.11 10.1L410.11 10.1Q409.11 10.1 408.36 9.98 407.61 9.85 406.91 9.6L406.91 9.6 407.96 5.1Q408.31 5.2 408.79 5.33 409.26 5.45 409.71 5.45L409.71 5.45Q411.66 5.45 412.84 4.28 414.01 3.1 414.61 1.25L414.61 1.25 415.06-0.3 405.41-24.55 411.26-24.55 415.51-12.5Q416.06-10.9 416.59-9.13 417.11-7.35 417.66-5.6L417.66-5.6 417.86-5.6Q418.31-7.3 418.79-9.08 419.26-10.85 419.71-12.5L419.71-12.5 423.41-24.55 428.96-24.55 420.06 1.1Q419.31 3.2 418.41 4.85 417.51 6.5 416.34 7.68 415.16 8.85 413.64 9.47 412.11 10.1 410.11 10.1Z" fill="#454545" data-fill-palette-color="secondary"></path></g></svg></g></svg></g></svg></g></svg></g><g transform="matrix(1,0,0,1,152.7927121229643,0)"><svg viewBox="0 0 89.93457575407139 86.49673007187572" height="86.49673007187572" width="89.93457575407139"><g><svg xmlns="http://www.w3.org/2000/svg" xmlns:xlink="http://www.w3.org/1999/xlink" xml:space="preserve" version="1.1" style="shape-rendering:geometricPrecision;text-rendering:geometricPrecision;image-rendering:optimizeQuality;" viewBox="509 1634.6884796281142 58983 56728.311520371884" x="0" y="0" fill-rule="evenodd" clip-rule="evenodd" height="86.49673007187572" width="89.93457575407139" class="icon-icon-0" data-fill-palette-color="accent" id="icon-0"><g fill="#ffffff" data-fill-palette-color="accent"><path class="" d="M30260 28988l7755 0 4871 0 122-16001-25639 0-122 16001 4916 0 8097 0z m-27255 800l-2096 0c-221 0-400-179-400-400 0-99 36-189 95-259l4315-5698c436-576 810-984 1275-1259 476-282 1018-408 1772-408l8520 0c7 0 13 0 20 0l67-8779c-3 0-6 0-9 0l-2540 0 0-1c-125 0-249-59-327-170-127-180-83-429 97-556l12576-8870c144-101 283-204 427-309 937-686 2022-1481 3216-1443 1195-37 2279 757 3216 1443 143 105 283 207 427 309l12556 8856c114 70 190 197 190 341 0 221-179 400-400 400l-2198 0-67 8778 8298 0c754 0 1295 126 1772 408 465 275 839 683 1275 1259l4315 5698c59 70 95 160 95 259 0 221-179 400-400 400l-1576 0 0 24762c0 1258-76 2172-494 2814-443 681-1203 1000-2543 1000l-48438 0c-1339 0-2099-318-2543-1000-418-642-494-1556-494-2814l0-24762z m13494-7223c-5 0-9 0-14 0l-8520 0c-604 0-1020 91-1365 295-356 211-668 556-1044 1053l-3843 5076 1692 0 857 0 12188 0 49-6423z m42 22345l0 6038 1895-17 22-6038-1917 17z m-500 6042l0-6038-1895 17-22 6038 1917-17z m2795 772l-5111 45c-220 0-398-178-398-398l25-6835c0-219 176-397 395-398l5111-45c220 0 398 178 398 398l-25 6835c0 219-176 397-395 398z m-9597-6887l0 6088 1842 0 22-6088-1864 0z m-500 6088l0-6088-1895 0-22 6088 1917 0z m2739 800l-5055 0 0-2c-220 0-398-178-398-398l25-6854c-1-11-1-22-1-34 0-221 179-400 400-400l5055 0 0 2c220 0 398 178 398 398l-25 6854c1 11 1 22 1 34 0 221-179 400-400 400z m5064-16977l0 6088 1895 0 22-6088-1917 0z m-500 6088l0-6088-1895 0-22 6088 1917 0z m2792 800l-5108 0 0-2c-220 0-398-178-398-398l25-6854c-1-11-1-22-1-34 0-221 179-400 400-400l5108 0 0 2c220 0 398 178 398 398l-25 6854c1 11 1 22 1 34 0 221-179 400-400 400z m-9594-6888l0 6088 1895 0 22-6088-1917 0z m-500 6088l0-6088-1895 0-22 6088 1917 0z m2792 800l-5108 0 0-2c-220 0-398-178-398-398l25-6854c-1-11-1-22-1-34 0-221 179-400 400-400l5108 0 0 2c220 0 398 178 398 398l-25 6854c1 11 1 22 1 34 0 221-179 400-400 400z m26271-23716l0 6088 1895 0 22-6088-1917 0z m-500 6088l0-6088-1895 0-22 6088 1917 0z m2792 800l-5108 0 0-2c-220 0-398-178-398-398l25-6854c-1-11-1-22-1-34 0-221 179-400 400-400l5108 0 0 2c220 0 398 178 398 398l-25 6854c1 11 1 22 1 34 0 221-179 400-400 400z m-9700-6888l0 6088 1895 0 22-6088-1917 0z m-500 6088l0-6088-1895 0-22 6088 1917 0z m2792 800l-5108 0 0-2c-220 0-398-178-398-398l25-6854c-1-11-1-22-1-34 0-221 179-400 400-400l5108 0 0 2c220 0 398 178 398 398l-25 6854c1 11 1 22 1 34 0 221-179 400-400 400z m-9594-6888l0 6088 1895 0 22-6088-1917 0z m-500 6088l0-6088-1895 0-22 6088 1917 0z m2792 800l-5108 0 0-2c-220 0-398-178-398-398l25-6854c-1-11-1-22-1-34 0-221 179-400 400-400l5108 0 0 2c220 0 398 178 398 398l-25 6854c1 11 1 22 1 34 0 221-179 400-400 400z m26244 20100l0 6038 1895-17 22-6038-1917 17z m-500 6042l0-6038-1895 17-22 6038 1917-17z m2795 772l-5111 45c-220 0-398-178-398-398l25-6835c0-219 176-397 395-398l5111-45c220 0 398 178 398 398l-25 6835c0 219-176 397-395 398z m-9597-6887l0 6088 1842 0 22-6088-1864 0z m-500 6088l0-6088-1895 0-22 6088 1917 0z m2739 800l-5055 0 0-2c-220 0-398-178-398-398l25-6854c-1-11-1-22-1-34 0-221 179-400 400-400l5055 0 0 2c220 0 398 178 398 398l-25 6854c1 11 1 22 1 34 0 221-179 400-400 400z m5064-16977l0 6088 1895 0 22-6088-1917 0z m-500 6088l0-6088-1895 0-22 6088 1917 0z m2792 800l-5108 0 0-2c-220 0-398-178-398-398l25-6854c-1-11-1-22-1-34 0-221 179-400 400-400l5108 0 0 2c220 0 398 178 398 398l-25 6854c1 11 1 22 1 34 0 221-179 400-400 400z m-9594-6888l0 6088 1895 0 22-6088-1917 0z m-500 6088l0-6088-1895 0-22 6088 1917 0z m2792 800l-5108 0 0-2c-220 0-398-178-398-398l25-6854c-1-11-1-22-1-34 0-221 179-400 400-400l5108 0 0 2c220 0 398 178 398 398l-25 6854c1 11 1 22 1 34 0 221-179 400-400 400z m-3191-29448c13-1 25-2 38-2l1280 0-11546-8144c-136-96-286-206-439-318-838-613-1807-1324-2730-1290-9 0-19 0-28 0-923-34-1893 676-2730 1290-153 112-303 222-439 318l-11546 8144 1280 0c75 0 145 21 205 57 60-36 130-57 205-57l26436 0 0 2 2 0c4 0 9 0 13 0z m259 16799l12056 0 1376 0 1173 0-3843-5076c-376-497-687-842-1044-1053-345-204-762-295-1365-295l-8304 0-49 6423z m-18255 13336l9096 0c221 0 400 179 400 400l0 14654 2769 0-75-27590-15055 0 75 27590 2390 0 0-14654c0-221 179-400 400-400z m8696 800l-8296 0 0 14254 8296 0 0-14254z m4291-13336l75 27775 15989 0c1035 0 1593-202 1874-634 307-471 362-1264 362-2379l0-24762-976 0-17325 0z m-16573 27775l-75-27775-17504 0-457 0 0 24762c0 1115 56 1908 362 2379 281 432 840 634 1874 634l15800 0z" fill="#ffffff" fill-rule="nonzero" data-fill-palette-color="accent"></path></g></svg></g></svg></g><g></g></svg></g><defs></defs></svg><rect width="395.52" height="138.07248121530256" fill="none" stroke="none" visibility="hidden"></rect></g></svg></g></svg>